<svg id="Layer_1" data-name="Layer 1" xmlns="http://www.w3.org/2000/svg" viewBox="0 0 356 356"><defs><style>.cls-1{fill:#fff;}</style></defs><title>ikoen_hvild_video</title><path class="cls-1" d="M257.14,237.83a16.6,16.6,0,0,1-10.43,3.48q-28,.1-56,0a16.54,16.54,0,0,1-10.4-3.52,6.93,6.93,0,0,1-2.83-5.84c.08-2.61.08-5.21,0-7.82a6.84,6.84,0,0,1,2.83-5.82,17.79,17.79,0,0,1,11.29-3.57c9.06-.06,18.11,0,27.18,0h26.64a20.06,20.06,0,0,1,10.22,2.53c2.84,1.66,4.58,4,4.35,7.51-.14,2.36-.1,4.74,0,7.11A6.88,6.88,0,0,1,257.14,237.83Z" transform="translate(-70.51 -72)"/><path class="cls-1" d="M265.8,293.64a5,5,0,1,1-5-5A5,5,0,0,1,265.8,293.64Z" transform="translate(-70.51 -72)"/><path class="cls-1" d="M248.51,72a178,178,0,1,0,178,178A178,178,0,0,0,248.51,72Zm-86.75,88.33c9,0,17.9,0,26.84,0,8.47,0,17,.22,25.41-.06,8.9-.29,15.49,8.05,15.64,15.46.07,3.67,0,7.34,0,11,0,4.63-3,7.95-7.69,8-10.78.12-21.57.26-32.34-.06-5.82-.17-10.73-3.19-14.91-7.15s-8.37-8.21-12.5-12.37a21.22,21.22,0,0,1-5.32-8.1C155.48,162.85,157.29,160.35,161.76,160.33ZM339,298.58c-4.25-.09-8.51-.06-12.78,0a5.14,5.14,0,0,1-2.83-.82q-19.95-12-39.91-24c-.59-.36-1.2-.7-2-1.17v1.91c0,8.81-.16,17.66.06,26.47.14,5.58-3.88,10.74-10.81,10.72q-51.72-.06-103.42,0a10.29,10.29,0,0,1-10.72-10.62q.16-45.39,0-90.8a10.44,10.44,0,0,1,10.6-10.53q51.87.15,103.76,0a10.39,10.39,0,0,1,10.59,10.57c-.22,8.65-.06,17.3-.06,25.95v2.07l21.69-13q9.79-5.9,19.56-11.8a3.76,3.76,0,0,1,2-.57c4.86,0,9.72,0,14.58,0,1.21,0,1.45.4,1.45,1.51q0,41.23,0,82.45C340.76,298.21,340.38,298.6,339,298.58Z" transform="translate(-70.51 -72)"/></svg>