<svg version="1.1" viewBox="0 0 6.9541 6.9541" xmlns="http://www.w3.org/2000/svg">
    <g transform="translate(-42.177 -150.82)">
        <path d="m45.654 151.44c.92721 0 1.0431 0 1.3908.0386.3477 0 .54088.0773.65678.1159.15454.0773.27044.15453.38634.27043.1159.11591.19317.23181.27044.38634.03863.1159.1159.30907.1159.65678 0 .3477.03863.46361.03863 1.3908s0 1.0431-.03863 1.3908c0 .3477-.07727.54087-.1159.65677-.07727.15454-.15454.27044-.27044.38634-.1159.1159-.2318.19317-.38634.27044-.1159.0386-.30907.1159-.65678.1159-.3477 0-.46361.0386-1.3908.0386-.92721 0-1.0431 0-1.3908-.0386-.3477 0-.54087-.0773-.65678-.1159-.15454-.0773-.27044-.15454-.38634-.27044-.1159-.1159-.19317-.2318-.27044-.38634-.03863-.1159-.1159-.30907-.1159-.65677 0-.34771-.03863-.46361-.03863-1.3908s0-1.0431.03863-1.3908c0-.34771.07727-.54088.1159-.65678.07727-.15453.15454-.27043.27044-.38634.1159-.15453.2318-.2318.38634-.27043.1159-.0386.30907-.1159.65678-.1159.3477-.0386.46361-.0386 1.3908-.0386m0-.61814c-.92721 0-1.0817 0-1.4295.0386-.38634 0-.61814.0773-.84995.15454-.2318.0773-.42497.19317-.61814.38634s-.30907.38634-.38634.61814c-.1159.2318-.15454.46361-.15454.84995-.03863.3477-.03863.50224-.03863 1.4294s0 1.0818.03863 1.4294c0 .38634.07727.61814.15454.84995.07727.2318.19317.42497.38634.61814s.38634.30907.61814.38634c.2318.0773.46361.15453.84995.15453.3477.0386.50224.0386 1.4295.0386.92721 0 1.0817 0 1.4295-.0386.38634 0 .61814-.0773.84994-.15453.2318-.0773.42497-.19317.61814-.38634.19317-.19317.30907-.38634.38634-.61814.07727-.23181.15454-.46361.15454-.84995s.03863-.50224.03863-1.4294 0-1.0818-.03863-1.4294c0-.38634-.07727-.61815-.15454-.84995-.07727-.2318-.19317-.42497-.38634-.61814-.19317-.19317-.38634-.30907-.61814-.38634-.2318-.0773-.46361-.15454-.84994-.15454-.3477-.0386-.50224-.0386-1.4295-.0386m0 1.6999c-1.0045 0-1.7772.77268-1.7772 1.7772s.81131 1.7772 1.7772 1.7772c1.0045 0 1.7772-.81131 1.7772-1.7772s-.77268-1.7772-1.7772-1.7772m0 2.9362c-.65678 0-1.159-.50225-1.159-1.159 0-.65678.50224-1.159 1.159-1.159s1.159.50224 1.159 1.159c0 .65677-.50224 1.159-1.159 1.159m1.8544-3.4384c-.2318 0-.42497.19317-.42497.42497 0 .23181.19317.42498.42497.42498.2318 0 .42497-.19317.42497-.42498-1e-6-.2318-.19317-.42497-.42497-.42497" style="fill-rule:evenodd;fill:#252c31"/>
    </g>
</svg>
