<svg version="1.1" viewBox="0 0 14.111 14.111" xmlns="http://www.w3.org/2000/svg">
    <path d="m7.05 0c.46327 0 .92209.04519 1.3765.13557.45437.09038.89556.22422 1.3236.4015s.83461.39462 1.2198.652c.3852.25738.74159.54986 1.0692.87745.32758.32758.62006.68398.87744 1.0692.25738.3852.47472.7918.65201 1.2198.17728.42801.31112.8692.4015 1.3236.0904.45437.13557.9132.13557 1.3765s-.0452.9221-.13557 1.3765c-.0904.45437-.22422.89556-.4015 1.3236-.17729.42801-.39463.83461-.65201 1.2198-.25738.3852-.54986.74159-.87744 1.0692-.32759.32758-.68398.62007-1.0692.87745-.3852.25738-.7918.47472-1.2198.652-.42801.17729-.8692.31112-1.3236.4015-.45438.09038-.9132.13557-1.3765.13557-.46328-2e-6-.9221-.04519-1.3765-.13557-.45437-.09038-.89556-.22421-1.3236-.4015-.42801-.17729-.83461-.39462-1.2198-.652-.3852-.25738-.74159-.54986-1.0692-.87745-.32758-.32758-.62006-.68398-.87744-1.0692-.25739-.3852-.47472-.7918-.65201-1.2198-.17729-.42801-.31112-.8692-.4015-1.3236-.0904-.45437-.13557-.9132-.13557-1.3765s.0452-.9221.13557-1.3765c.0904-.45437.22421-.89556.4015-1.3236s.39462-.83461.65201-1.2198c.25738-.3852.54986-.74159.87744-1.0692.32759-.32758.68398-.62007 1.0692-.87745.3852-.25738.7918-.47472 1.2198-.652s.8692-.31112 1.3236-.4015c.45438-.09038.9132-.13557 1.3765-.13557z" style="fill:#7b6c48"/>
    <path d="m6.35 10.231v-6.35c0-.19483.0689-.36114.20665-.4989.13777-.13777.30407-.20665.49891-.20665.19483 0 .36113.06888.4989.20665s.20665.30407.20665.4989v6.35c0 .19483-.0689.36114-.20665.4989-.13777.13777-.30407.20665-.4989.20665-.19484 0-.36114-.06888-.49891-.20665s-.20665-.30407-.20665-.4989z" style="fill:#ffffff"/>
    <path d="m10.23 7.762h-6.35c-.19484 0-.36114-.06888-.49891-.20665s-.20665-.30407-.20665-.4989.0689-.36113.20665-.4989c.13777-.13777.30407-.20665.49891-.20665h6.35c.19483 0 .36113.06888.4989.20665s.20665.30407.20665.4989-.0689.36114-.20665.4989c-.13777.13777-.30407.20665-.4989.20665z" style="fill:#ffffff"/>
</svg>
