<svg xmlns="http://www.w3.org/2000/svg" data-name="Layer 1" width="369.30769202554006" height="369.15384564597207" style=""><rect id="backgroundrect" width="100%" height="100%" x="0" y="0" fill="none" stroke="none" class="" style=""/><defs><style>.cls-1{fill:#7b6c48;}.cls-2{fill:#fff;}</style></defs><title>Mail_ikon</title><g class="currentLayer" style=""><title>Layer 1</title><circle class="cls-1" cx="184.65384602546692" cy="184.57692277431488" r="183" id="svg_1"/><path class="cls-2" d="M100.9238429737091,250.48191545009615 a2.21,2.21 0 0 0 1.3900000000000001,0.07 C101.8538429737091,250.54191545009616 101.38384297370911,250.52191545009612 100.9238429737091,250.48191545009615 zm165.5,0.06000000000000003 H102.68384297370912 a1.5,1.5 0 0 0 -0.37000000000000016,0 H266.7838429737091 zm0.36000000000000015,0 a3.35,3.35 0 0 0 1,0 h-1 zm1.3800000000000001,-0.3300000000000002 l0.05000000000000003,0.06000000000000003 c0,0.07 0,0.09000000000000007 -0.13,0.15000000000000008 a1.1400000000000001,1.1400000000000001 0 0 1 -0.30000000000000016,0.09000000000000007 h0.4 c0.19000000000000009,-0.08000000000000004 0,-0.29000000000000015 0,-0.28 zm0,0 l0.05000000000000003,0.06000000000000003 c0,0.07 0,0.09000000000000007 -0.13,0.15000000000000008 a1.1400000000000001,1.1400000000000001 0 0 1 -0.30000000000000016,0.09000000000000007 h0.4 c0.19000000000000009,-0.08000000000000004 0,-0.29000000000000015 0,-0.28 zm-0.38000000000000017,0.30000000000000016 h-1 a3.35,3.35 0 0 0 1,0 zm-165.1,0 l-0.37000000000000016,0 H266.4238429737091 q-81.88,0 -163.75,0 zm-0.37000000000000016,0 c-0.46,0 -0.93,0 -1.3900000000000001,-0.08000000000000004 a2.14,2.14 0 0 0 1.3900000000000001,0.08000000000000004 zM280.4038429737091,108.63191545009613 H89.22384297370911 c-4.5,0 -6.15,1.6600000000000001 -6.15,6.19 V254.26191545009613 c0,4.71 1.57,6.26 6.26,6.26 h191 c4.24,0 5.9,-1.6300000000000003 5.9,-5.8 V114.53191545009614 C286.2338429737091,110.32191545009613 284.6038429737091,108.63191545009613 280.4038429737091,108.63191545009613 zm-180.39,9.74 H271.6038429737091 l-60.73,61.08 l-16.21,16.34 c-5.51,5.54 -13,5.54 -18.51,0 l-75.11,-76.05 a7.86,7.86 0 0 0 -1.3900000000000001,-0.9 zM92.6038429737091,243.8419154500961 V125.25191545009613 c4.49,4.35 9.18,8.74 13.71,13.34 q22,22.18 44,44.5 c0.8600000000000003,0.8500000000000003 1.07,1.29 0.08000000000000004,2.29 q-28.56,28.85 -57,57.77 c-0.15000000000000008,0.18000000000000008 -0.35000000000000014,0.35000000000000014 -0.7000000000000003,0.6900000000000006 zm176,7.35 H100.53384297370911 c-0.51,0 -1.1400000000000001,0.35000000000000014 -1.53,-0.27 a7.21,7.21 0 0 1 0.6700000000000006,-0.5700000000000003 c0.41000000000000014,0.06000000000000003 0.8200000000000003,0.1 1.23,0.13 a1.21,1.21 0 0 1 -0.46,-0.91 c2.8200000000000003,-2.91 5.63,-5.82 8.47,-8.7 Q132.7338429737091,216.63191545009613 156.6038429737091,192.51191545009613 c0.48000000000000015,-0.49000000000000016 0.9,-1.06 1.1600000000000001,-1.34 c4,3.88 7.93,7.58 11.73,11.4 c9,9.06 22.7,9.14 31.72,0.1 c3.27,-3.27 6.55,-6.54 9.78,-9.86 c0.7400000000000003,-0.77 1.11,-1 2,-0.08000000000000004 q28.58,29.11 57.23,58.16 c-0.43000000000000016,0.6200000000000003 -1.05,0.30000000000000016 -1.55,0.30000000000000016 zm7.86,-7.72 c-0.12000000000000002,0.12000000000000002 -0.22000000000000008,0.25 -0.3300000000000002,0.37000000000000016 a6.37,6.37 0 0 0 -0.6700000000000006,-1.09 q-27.79,-28.25 -55.63,-56.48 c-0.6700000000000006,-0.6800000000000006 -1.4,-1.07 -0.26,-2.18 c19.17,-18.75 38.28,-37.54 56.91,-55.81 zm-8.33,6.76 l0.05000000000000003,0.06000000000000003 c0,0.06000000000000003 0,0.08000000000000004 -0.13,0.14 a1.18,1.18 0 0 1 -0.30000000000000016,0.1 h0.4 C268.3738429737091,250.43191545009614 268.1938429737091,250.2219154500961 268.1638429737091,250.23191545009615 zm-0.38000000000000017,0.30000000000000016 h-1 A3.35,3.35 0 0 0 267.7838429737091,250.5319154500961 zm-165.1,0 a2.22,2.22 0 0 0 -0.37000000000000016,0 H266.4238429737091 q-81.88,0 -163.75,0 zm-0.37000000000000016,0 c-0.46,0 -0.93,0 -1.3900000000000001,-0.07 a2.21,2.21 0 0 0 1.3900000000000001,0.06000000000000003 z" id="svg_2"/><path class="cls-2" d="M594.54,372 c0.6800000000000002,0.06000000000000001 1.37,0.09000000000000002 2.06,0.11000000000000001 A3.23,3.23 0 0 1 594.54,372 z" id="svg_3"/><path class="cls-2" d="M266.18,248.89999999999998 a3.35,3.35 0 0 1 -1,0 A8.34,8.34 0 0 0 266.18,248.89999999999998 z" id="svg_4"/></g></svg>