<svg id="Layer_1" data-name="Layer 1" xmlns="http://www.w3.org/2000/svg" viewBox="0 0 302.13 225.88"><defs><style>.cls-1{fill:#7b6c48;}</style></defs><title>mail</title><path class="cls-1" d="M125.41,348.18a3.26,3.26,0,0,0,2.06.11C126.78,348.27,126.09,348.24,125.41,348.18Zm246.12.09q-121.77,0-243.51,0a3.62,3.62,0,0,0-.55.05c1.89,0,3.77,0,5.66,0H372.07Zm.54,0a5.31,5.31,0,0,0,1.49,0C373.07,348.28,372.57,348.29,372.07,348.29Zm2.06-.49.06.09c.07.1,0,.13-.19.22a1.73,1.73,0,0,1-.44.14l.59,0C374.43,348.11,374.16,347.79,374.13,347.8Zm0,0,.06.09c.07.1,0,.13-.19.22a1.73,1.73,0,0,1-.44.14l.59,0C374.43,348.11,374.16,347.79,374.13,347.8Zm-.57.45c-.49,0-1,0-1.49,0A5.31,5.31,0,0,0,373.56,348.25Zm-245.54,0a3.62,3.62,0,0,0-.55.05c1.89,0,3.77,0,5.66,0H372.07l-.54,0Q249.76,348.29,128,348.24Zm-.55.05c-.69,0-1.38-.05-2.06-.11A3.26,3.26,0,0,0,127.47,348.29ZM392.33,137.22H108c-6.69,0-9.14,2.47-9.14,9.21V353.8c0,7,2.33,9.31,9.31,9.31h284c6.32,0,8.78-2.43,8.78-8.62V146C401,139.74,398.51,137.22,392.33,137.22ZM124.05,151.71H379.23l-90.32,90.84q-12.06,12.15-24.11,24.29c-8.2,8.24-19.36,8.24-27.53,0q-55.85-56.55-111.7-113.09a11.7,11.7,0,0,0-2.07-1.35Zm-11,186.59V161.94c6.67,6.46,13.65,13,20.39,19.83q32.76,33,65.39,66.18c1.27,1.27,1.59,1.92.12,3.41q-42.49,42.9-84.83,85.92C113.89,337.55,113.6,337.8,113.08,338.3Zm261.77,10.94q-125,0-250,0c-.76,0-1.69.51-2.27-.41a9.77,9.77,0,0,1,1-.84c.61.08,1.22.15,1.83.19a1.83,1.83,0,0,1-.69-1.36c4.2-4.32,8.37-8.65,12.6-12.93q35.41-36,70.87-71.92c.72-.74,1.35-1.58,1.73-2,6,5.78,11.8,11.27,17.45,16.95,13.41,13.48,33.76,13.6,47.17.16,4.87-4.87,9.74-9.73,14.54-14.67,1.1-1.14,1.66-1.48,3-.12q42.49,43.31,85.1,86.5C376.52,349.71,375.59,349.24,374.85,349.24Zm11.69-11.49c-.17.18-.32.37-.49.55a9.67,9.67,0,0,0-1-1.62q-41.34-42-82.73-84c-1-1-2.08-1.58-.39-3.23,28.51-27.89,56.94-55.84,84.64-83ZM374.13,347.8l.06.09c.07.1,0,.13-.19.22a1.73,1.73,0,0,1-.44.14l.59,0C374.43,348.11,374.16,347.79,374.13,347.8Zm-.57.45c-.49,0-1,0-1.49,0A5.31,5.31,0,0,0,373.56,348.25Zm-245.54,0a3.62,3.62,0,0,0-.55.05c1.89,0,3.77,0,5.66,0H372.07l-.54,0Q249.76,348.29,128,348.24Zm-.55.05c-.69,0-1.38-.05-2.06-.11A3.26,3.26,0,0,0,127.47,348.29Z" transform="translate(-98.87 -137.22)"/><path d="M125.41,348.18c.68.06,1.37.09,2.06.11A3.26,3.26,0,0,1,125.41,348.18Z" transform="translate(-98.87 -137.22)"/><path d="M373.56,348.25a5.31,5.31,0,0,1-1.49,0C372.57,348.29,373.07,348.28,373.56,348.25Z" transform="translate(-98.87 -137.22)"/></svg>