<svg version="1.1" viewBox="0 0 18.635 18.635" xmlns="http://www.w3.org/2000/svg">
    <g transform="translate(-157.75 .33525)">
        <path d="m167.07-.19008c.60226 0 1.1987.058747 1.7894.17624.59069.11749 1.1642.29148 1.7206.52195.55641.23047 1.085.51301 1.5858.8476.50076.3346.96407.71482 1.3899 1.1407.42586.42586.80609.88917 1.1407 1.3899.3346.50076.61713 1.0293.84761 1.5858.23047.55641.40446 1.13.52195 1.7206.11749.59069.17624 1.1872.17624 1.7894 0 .60226-.0587 1.1987-.17624 1.7894-.1175.59068-.29148 1.1642-.52195 1.7206-.23048.55641-.51301 1.085-.84761 1.5858-.33459.50076-.71482.96407-1.1407 1.3899s-.88917.80609-1.3899 1.1407c-.50076.3346-1.0293.61713-1.5858.8476-.55642.23047-1.13.40446-1.7206.52195-.59068.11749-1.1872.17624-1.7894.17624-.60226-1e-6-1.1987-.05875-1.7894-.17624-.59069-.1175-1.1642-.29148-1.7206-.52195-.55641-.23047-1.085-.51301-1.5858-.84761-.50076-.3346-.96407-.71482-1.3899-1.1407s-.80609-.88917-1.1407-1.3899c-.3346-.50076-.61713-1.0293-.84761-1.5858-.23047-.55641-.40445-1.13-.52195-1.7206-.11749-.59068-.17624-1.1872-.17624-1.7894 0-.60226.0588-1.1987.17624-1.7894.1175-.59068.29148-1.1642.52195-1.7206.23048-.55641.51301-1.085.84761-1.5858.33459-.50076.71482-.96407 1.1407-1.3899.42586-.42586.88917-.80609 1.3899-1.1407.50076-.3346 1.0293-.61713 1.5858-.8476.55642-.23047 1.13-.40446 1.7206-.52195.59068-.11749 1.1872-.17624 1.7894-.17624z" style="fill:#ffffff"/>
        <path d="m167.07 18.3c-5.1246 0-9.3174-4.1928-9.3174-9.3174 0-5.1246 4.1928-9.3174 9.3174-9.3174s9.3174 4.1928 9.3174 9.3174c0 5.1246-4.1928 9.3174-9.3174 9.3174zm4.6587-13.976-4.5422 2.0964c-1.0482.46587-2.2129 1.6305-2.6788 2.6787l-2.0964 4.5422 4.5422-2.0964c1.0482-.46587 2.2129-1.6305 2.6788-2.6788z" style="fill-rule:evenodd;fill:#7b6c48"/>
    </g>
</svg>
