<?xml version="1.0" encoding="UTF-8"?>
<svg version="1.1" viewBox="0 0 12.275 8.9502" xmlns="http://www.w3.org/2000/svg">
    <g transform="translate(-105.74 -109.58)">
        <g transform="matrix(.35278 0 0 .35278 105.74 109.58)">
            <path d="m0 2.5371c0-0.70059 0.2477-1.2986 0.74309-1.794 0.49539-0.49539 1.0934-0.74309 1.794-0.74309h29.72c0.70059 0 1.2986 0.2477 1.794 0.74309 0.49539 0.49539 0.74309 1.0934 0.74309 1.794-4e-6 0.70059-0.2477 1.2986-0.74309 1.794-0.49539 0.49539-1.0934 0.74309-1.794 0.74309h-29.72c-0.70059-5e-7 -1.2986-0.2477-1.794-0.74309-0.49539-0.49539-0.74309-1.0934-0.74309-1.794z" style="fill:#252c31"/>
        </g>
        <g transform="matrix(.35278 0 0 .35278 105.74 113.16)">
            <path d="m0 2.5371c0-0.70059 0.2477-1.2986 0.74309-1.794 0.49539-0.49539 1.0934-0.74309 1.794-0.74309h29.72c0.70059 0 1.2986 0.2477 1.794 0.74309 0.49539 0.49539 0.74309 1.0934 0.74309 1.794-4e-6 0.70059-0.2477 1.2986-0.74309 1.794-0.49539 0.49539-1.0934 0.74309-1.794 0.74309h-29.72c-0.70059-5e-7 -1.2986-0.2477-1.794-0.74309-0.49539-0.49539-0.74309-1.0934-0.74309-1.794z" style="fill:#252c31"/>
        </g>
        <g transform="matrix(.35278 0 0 .35278 105.74 116.74)">
            <path d="m0 2.5371c0-0.70059 0.2477-1.2986 0.74309-1.794 0.49539-0.49539 1.0934-0.74309 1.794-0.74309h21.021c0.70059 0 1.2986 0.2477 1.794 0.74309 0.49539 0.49539 0.74309 1.0934 0.74309 1.794-1e-6 0.70059-0.2477 1.2986-0.74309 1.794-0.49539 0.49539-1.0934 0.74309-1.794 0.74309h-21.021c-0.70059-5e-7 -1.2986-0.2477-1.794-0.74309-0.49539-0.49539-0.74309-1.0934-0.74309-1.794z" style="fill:#252c31"/>
        </g>
    </g>
</svg>
