<svg version="1.1" viewBox="0 0 12.275 8.9502" xmlns="http://www.w3.org/2000/svg">
    <path d="m0 0.89504c0-0.24715 0.087384-0.45812 0.26215-0.63289 0.17476-0.17476 0.38573-0.26215 0.63289-0.26215h10.485c0.24715 0 0.45812 0.087384 0.63289 0.26215 0.17476 0.17476 0.26215 0.38573 0.26215 0.63289-2e-6 0.24715-0.08738 0.45812-0.26215 0.63289-0.17476 0.17476-0.38573 0.26215-0.63289 0.26215h-10.485c-0.24715-1e-7 -0.45812-0.087384-0.63289-0.26215-0.17476-0.17476-0.26215-0.38573-0.26215-0.63289z" style="stroke-width:.35278"/>
    <path d="m0 4.475c0-0.24715 0.087384-0.45812 0.26215-0.63289 0.17476-0.17476 0.38573-0.26215 0.63289-0.26215h10.485c0.24715 0 0.45812 0.087384 0.63289 0.26215 0.17476 0.17476 0.26215 0.38573 0.26215 0.63289-2e-6 0.24715-0.08738 0.45812-0.26215 0.63289-0.17476 0.17476-0.38573 0.26215-0.63289 0.26215h-10.485c-0.24715-1e-7 -0.45812-0.087384-0.63289-0.26215-0.17476-0.17476-0.26215-0.38573-0.26215-0.63289z" style="stroke-width:.35278"/>
    <path d="m0 8.055c0-0.24715 0.087384-0.45812 0.26215-0.63289 0.17476-0.17476 0.38573-0.26215 0.63289-0.26215h7.4158c0.24715 0 0.45812 0.087384 0.63289 0.26215 0.17476 0.17476 0.26215 0.38573 0.26215 0.63289-4e-7 0.24715-0.087384 0.45812-0.26215 0.63289-0.17476 0.17476-0.38573 0.26215-0.63289 0.26215h-7.4158c-0.24715-1e-7 -0.45812-0.087384-0.63289-0.26215-0.17476-0.17476-0.26215-0.38573-0.26215-0.63289z" style="stroke-width:.35278"/>
</svg>
