<svg version="1.1" viewBox="0 0 21.167 21.167" xmlns="http://www.w3.org/2000/svg">
    <g transform="translate(120.32 -151.73)">
        <path d="m-109.73 151.73c.69491 0 1.3832.0678 2.0647.20336.68156.13557 1.3433.33632 1.9854.60225.64201.26593 1.2519.59193 1.8297.978.57779.38608 1.1124.8248 1.6038 1.3162.49138.49137.9301 1.026 1.3162 1.6038s.71207 1.1877.978 1.8297c.26593.64201.46668 1.3038.60225 1.9854.13557.68156.20336 1.3698.20336 2.0647-1e-6.69491-.06779 1.3832-.20336 2.0647-.13557.68156-.33632 1.3433-.60225 1.9854-.26594.64201-.59194 1.2519-.978 1.8297-.38607.57779-.82479 1.1124-1.3162 1.6038s-1.026.9301-1.6038 1.3162c-.5778.38607-1.1877.71207-1.8297.978-.64202.26594-1.3038.46669-1.9854.60226s-1.3698.20335-2.0647.20336c-.69491-1e-5-1.3831-.0678-2.0647-.20336-.68156-.13557-1.3434-.33632-1.9854-.60226-.64202-.26593-1.2519-.59193-1.8297-.978s-1.1124-.82479-1.6038-1.3162c-.49138-.49138-.9301-1.026-1.3162-1.6038-.38607-.5778-.71207-1.1877-.978-1.8297-.26593-.64202-.46668-1.3038-.60225-1.9854s-.20336-1.3698-.20336-2.0647.0678-1.3831.20336-2.0647c.13557-.68156.33632-1.3434.60225-1.9854.26593-.64202.59193-1.2519.978-1.8297.38608-.5778.8248-1.1124 1.3162-1.6038.49137-.49138 1.026-.9301 1.6038-1.3162.5778-.38607 1.1877-.71207 1.8297-.978.64201-.26593 1.3038-.46668 1.9854-.60225s1.3698-.20336 2.0647-.20336z" style="fill:#ffffff"/>
        <path d="m-109.68 160.93-2.0081 2.0624-.86838 2.4966 2.4966-.8141 2.0081-2.0081zm2.5508-.16282-.70556-.70556c-.16282-.16282-.32564-.21709-.48846-.21709s-.32564.0543-.48846.21709l-.59701.59701 1.6282 1.6825.65128-.65128c.10855-.10855.21709-.27137.21709-.48846 0-.16282-.10854-.32564-.21709-.43419z" style="fill:#252c31"/>
    </g>
</svg>
