<svg version="1.1" viewBox="0 0 21.167 21.167" xmlns="http://www.w3.org/2000/svg">
    <g transform="translate(72.02 -147.66)">
        <path d="m-61.436 147.66c.69491 0 1.3831.0678 2.0647.20336.68156.13557 1.3433.33632 1.9854.60225.64201.26593 1.2519.59193 1.8297.978.5778.38608 1.1124.8248 1.6038 1.3162.49138.49137.9301 1.026 1.3162 1.6038.38607.5778.71207 1.1877.978 1.8297.26593.64201.46668 1.3038.60225 1.9854.13557.68156.20336 1.3698.20336 2.0647-1e-6.69491-.06779 1.3832-.20336 2.0647-.13557.68156-.33632 1.3433-.60225 1.9854-.26593.64201-.59193 1.2519-.978 1.8297-.38607.57779-.8248 1.1124-1.3162 1.6038s-1.026.9301-1.6038 1.3162c-.5778.38607-1.1877.71207-1.8297.978-.64202.26594-1.3038.46669-1.9854.60226s-1.3698.20335-2.0647.20336c-.69491-1e-5-1.3831-.0678-2.0647-.20336-.68156-.13557-1.3433-.33632-1.9854-.60226-.64201-.26593-1.2519-.59193-1.8297-.978-.5778-.38607-1.1124-.82479-1.6038-1.3162s-.9301-1.026-1.3162-1.6038c-.38607-.5778-.71207-1.1877-.978-1.8297-.26593-.64202-.46668-1.3038-.60225-1.9854-.13557-.68156-.20336-1.3698-.20336-2.0647s.06778-1.3831.20336-2.0647c.13557-.68156.33632-1.3434.60225-1.9854.26593-.64202.59193-1.2519.978-1.8297s.8248-1.1124 1.3162-1.6038c.49138-.49138 1.026-.9301 1.6038-1.3162.5778-.38607 1.1877-.71207 1.8297-.978s1.3038-.46668 1.9854-.60225 1.3698-.20336 2.0647-.20336z" style="fill:#ffffff"/>
        <path d="m-64.259 161.07v-.70549c0-.77628 1.27-1.4113 2.8223-1.4113 1.5523 0 2.8223.63501 2.8223 1.4113v.70549zm1.411-4.2332c0-.77946.63182-1.4113 1.4113-1.4113.77914 0 1.411.63184 1.411 1.4113 0 .77914-.63183 1.411-1.411 1.411-.77946 0-1.4113-.63183-1.4113-1.411z" style="fill:#252c31"/>
    </g>
</svg>
