<svg version="1.1" viewBox="0 0 21.167 21.167" xmlns="http://www.w3.org/2000/svg">
    <g transform="translate(-138.34 -82.31)">
        <path d="m148.92 82.31c.69491 0 1.3832.06779 2.0647.20336.68156.13557 1.3433.33632 1.9854.60225.64201.26593 1.2519.59193 1.8297.978.57779.38607 1.1124.8248 1.6038 1.3162s.9301 1.026 1.3162 1.6038c.38607.5778.71207 1.1877.978 1.8297.26594.64201.46669 1.3038.60226 1.9854s.20335 1.3698.20336 2.0647c-1e-5.69491-.0678 1.3831-.20336 2.0647-.13557.68156-.33632 1.3433-.60226 1.9854-.26593.64201-.59193 1.2519-.978 1.8297-.38607.5778-.82479 1.1124-1.3162 1.6038-.49138.49138-1.026.9301-1.6038 1.3162-.5778.38608-1.1877.71208-1.8297.97801-.64202.26593-1.3038.46668-1.9854.60225s-1.3698.20336-2.0647.20336-1.3831-.0678-2.0647-.20336c-.68156-.13557-1.3434-.33632-1.9854-.60225-.64202-.26593-1.2519-.59193-1.8297-.97801-.5778-.38607-1.1124-.82479-1.6038-1.3162-.49138-.49138-.9301-1.026-1.3162-1.6038-.38607-.5778-.71207-1.1877-.978-1.8297-.26593-.64202-.46668-1.3038-.60225-1.9854s-.20336-1.3698-.20336-2.0647c0-.69491.0678-1.3831.20336-2.0647.13557-.68156.33632-1.3433.60225-1.9854s.59193-1.2519.978-1.8297c.38608-.5778.8248-1.1124 1.3162-1.6038.49137-.49138 1.026-.9301 1.6038-1.3162s1.1877-.71207 1.8297-.978c.64201-.26593 1.3038-.46668 1.9854-.60225.68156-.13557 1.3698-.20336 2.0647-.20336z" style="fill:#ffffff"/>
        <path d="m145.43 90.826c0-.14615.0517-.2709.15502-.37424.10334-.10334.22809-.15502.37424-.15502h6.1998c.14615 0 .27089.05167.37424.15502.10334.10334.15501.22809.15501.37424s-.0517.2709-.15501.37424c-.10335.10334-.22809.15502-.37424.15502h-6.1998c-.14615 0-.2709-.05167-.37424-.15502-.10335-.10334-.15502-.22809-.15502-.37424z" style="fill:#252c31"/>
        <path d="m145.43 92.943c0-.14615.0517-.2709.15502-.37424.10334-.10334.22809-.15502.37424-.15502h6.1998c.14615 0 .27089.05167.37424.15502.10334.10334.15501.22809.15501.37424s-.0517.2709-.15501.37424c-.10335.10334-.22809.15502-.37424.15502h-6.1998c-.14615 0-.2709-.05167-.37424-.15502-.10335-.10334-.15502-.22809-.15502-.37424z" style="fill:#252c31"/>
        <path d="m145.43 95.06c0-.14615.0517-.2709.15502-.37424.10334-.10334.22809-.15502.37424-.15502h4.3853c.14615 0 .27089.05167.37424.15502.10334.10334.15501.22809.15501.37424s-.0517.2709-.15501.37424c-.10335.10334-.22809.15502-.37424.15502h-4.3853c-.14615 0-.2709-.05167-.37424-.15502-.10335-.10334-.15502-.22809-.15502-.37424z" style="fill:#252c31"/>
    </g>
</svg>
