<svg id="Layer_1" data-name="Layer 1" xmlns="http://www.w3.org/2000/svg" viewBox="0 0 364 364"><defs><style>.cls-1{fill:#7b6c48;}</style></defs><title>tel_ikon</title><path class="cls-1" d="M250,68A182,182,0,1,0,432,250,182,182,0,0,0,250,68Zm85.11,247.93a49.1,49.1,0,0,1-4.48,4.41c-2.68,2.45-5.35,4.92-8.12,7.27a55.36,55.36,0,0,1-19.18,10.51,60.47,60.47,0,0,1-18.67,2.77,71.09,71.09,0,0,1-24.16-4.64,102.41,102.41,0,0,1-20.68-10.58,158.62,158.62,0,0,1-21.4-17,242,242,0,0,1-20.14-21.37,207.37,207.37,0,0,1-20-27.83,126.73,126.73,0,0,1-11.15-23.83A85.87,85.87,0,0,1,163,217.88a65.56,65.56,0,0,1,2-26.14,56.54,56.54,0,0,1,19.84-29.17c2.25-1.74,4.32-3.71,6.47-5.57a19.38,19.38,0,0,1,5.42-3.48,11.32,11.32,0,0,1,10.19.73,28.57,28.57,0,0,1,8.17,7.47,142.46,142.46,0,0,1,8.37,12.45,85,85,0,0,1,5.46,9.48,32.64,32.64,0,0,1,3.27,10.64,16.6,16.6,0,0,1-4.32,13.57c-2,2.18-4.39,4-6.57,6.09a68.47,68.47,0,0,1-6.85,5.27,14.33,14.33,0,0,0-5.88,8,17.75,17.75,0,0,0,.12,8.63,42.56,42.56,0,0,0,4.53,11,114.61,114.61,0,0,0,12.16,17.09,166.1,166.1,0,0,0,13.5,14.57,66.18,66.18,0,0,0,14.24,10.78,23,23,0,0,0,9.27,2.93,13.58,13.58,0,0,0,10.11-3.56,18,18,0,0,0,1.83-1.77,69.31,69.31,0,0,1,8.34-7.82,40.51,40.51,0,0,1,5.15-3.9c4.57-2.77,9.47-3,14.51-1.41a35,35,0,0,1,11.14,6.09c3.77,3,7.41,6.11,11.08,9.21a66.5,66.5,0,0,1,8.09,7.83,25.15,25.15,0,0,1,4.39,7A11.29,11.29,0,0,1,335.11,315.93Z" transform="translate(-68 -68)"/></svg>