<svg version="1.1" viewBox="0 0 7.2191 5.8555" xmlns="http://www.w3.org/2000/svg">
    <g transform="translate(-49.907 -146.34)">
        <path d="m52.193 152.2c2.7272 0 4.2111-2.2459 4.2111-4.2111v-.20052c.28074-.20053.52138-.48127.72191-.76202-.28074.12032-.56148.20053-.84222.24064.32085-.20053.52138-.48127.64169-.80212-.28074.16043-.60158.28074-.92243.36096-.28074-.32085-.6818-.48127-1.0829-.48127-.80212 0-1.4839.68179-1.4839 1.4839 0 .12032 0 .24064.0401.32085-1.2433-.0802-2.3261-.6417-3.048-1.5641-.12032.20053-.20053.48127-.20053.76201 0 .52138.28074.96254.64169 1.2433-.24063 0-.48127-.0802-.6818-.20053 0 .72191.52138 1.3235 1.2032 1.4438-.12032.0401-.24064.0401-.40106.0401-.08021 0-.20053 0-.28074-.0401.20053.60159.7219 1.0026 1.4037 1.0428-.52138.40106-1.1631.6417-1.8449.6417-.12032 0-.24063 0-.36096-.0401.6417.48127 1.4438.72191 2.286.72191" style="fill-rule:evenodd;fill:#252c31"/>
    </g>
</svg>
