<svg id="Layer_1" data-name="Layer 1" xmlns="http://www.w3.org/2000/svg" viewBox="0 0 356 356"><defs><style>.cls-1{fill:#7b6c48;}.cls-2{fill:#fefefe;}</style></defs><title>video_ikoen</title><circle class="cls-1" cx="178" cy="178" r="178"/><path class="cls-2" d="M340.75,214.43c0-1.11-.24-1.53-1.45-1.51-4.86.06-9.72,0-14.58,0a3.76,3.76,0,0,0-2,.57q-9.77,5.91-19.56,11.8l-21.69,13v-2.07c0-8.65-.16-17.3.06-25.95a10.39,10.39,0,0,0-10.59-10.57q-51.87.15-103.76,0a10.44,10.44,0,0,0-10.6,10.53q.19,45.4,0,90.8a10.29,10.29,0,0,0,10.72,10.62q51.72,0,103.42,0c6.93,0,10.95-5.14,10.81-10.72-.22-8.81-.06-17.66-.06-26.47v-1.91c.85.47,1.46.81,2,1.17q20,12,39.91,24a5.14,5.14,0,0,0,2.83.82c4.27-.05,8.53-.08,12.78,0,1.34,0,1.72-.37,1.72-1.7Q340.7,255.68,340.75,214.43Zm-150,26.88a16.54,16.54,0,0,1-10.4-3.52,6.93,6.93,0,0,1-2.83-5.84c.08-2.61.08-5.21,0-7.82a6.84,6.84,0,0,1,2.83-5.82,17.79,17.79,0,0,1,11.29-3.57c9.06-.06,18.11,0,27.18,0h26.64a20.06,20.06,0,0,1,10.22,2.53c2.84,1.66,4.58,4,4.35,7.51-.14,2.36-.1,4.74,0,7.11a6.88,6.88,0,0,1-2.89,6,16.6,16.6,0,0,1-10.43,3.48Q218.75,241.42,190.76,241.31Zm70.05,57.29a5,5,0,1,1,5-5A5,5,0,0,1,260.81,298.6Z" transform="translate(-70.51 -72)"/><path class="cls-2" d="M158.22,175.17c4.13,4.16,8.25,8.34,12.5,12.37s9.09,7,14.91,7.15c10.77.32,21.56.18,32.34.06,4.68-.06,7.68-3.38,7.69-8,0-3.68.06-7.35,0-11-.15-7.41-6.74-15.75-15.64-15.46-8.46.28-16.94.06-25.41.06-8.94,0-17.89,0-26.84,0-4.47,0-6.28,2.52-4.86,6.74A21.22,21.22,0,0,0,158.22,175.17Z" transform="translate(-70.51 -72)"/></svg>