<svg id="Layer_1" data-name="Layer 1" xmlns="http://www.w3.org/2000/svg" viewBox="0 0 376.26 667.05"><defs><style>.cls-1{fill:#fefefe;}.cls-2{fill:#f0f8fe;}.cls-3{fill:#f1f9fe;}.cls-4{fill:#f3f9fe;}</style></defs><title>Kort</title><g id="DteUKs.tif"><path class="cls-1" d="M73,698H68c-1-.87-2-1.69-3,0H61c-2.14-2.78-.43-5.77-.38-8.64.06-3.46-1-5-4.64-4.1a28.11,28.11,0,0,1-4.88.82c-6.52.41-12.25,1.53-11.13,10.24.08.62-.56,1.16-1,1.68H31c-1-1.72-.46-3.59-.46-5.37,0-40,.07-80-.11-120,0-8,2-15.45,4.35-22.92.89-2.86.93-5-2.27-6.59-3.55-1.77-2.06-5.39-1.78-8.1s3.08-1.85,4.94-1.72c2.89.19,4.28-1.26,5-3.84,1.9-7.25,4.1-14.42,6.39-21.55.86-2.7.31-4.41-2.36-5.62-3.64-1.64-7.11-3.66-10.78-5.25-2.44-1.06-3.65-2.59-3.41-5.36.21-2.32.06-4.66,0-7,0-2.63-.59-5.43,3.5-5.78,1.71-.15,1.83-2.19,2.25-3.59,5-16.25,9.24-32.7,14.05-49,1-3.56-.1-5.68-3.26-7.27-9.78-4.91-8.72-7.29-12.71,4.8-.6,1.83-.77,4-3.08,5.27-1.51-3.38-.56-6.82-.7-10.13-.16-3.59,1.39-7.19,0-10.81a2,2,0,0,1,.26-1.93c6.33-6.25,6.54-15.09,9.57-22.73,1.38-3.48,4-7.27,2.7-10.89s-6.09-3.52-9.22-5.28c-1.17-.65-2.47-1.19-3-2.5a3.85,3.85,0,0,1,.14-3.82c.77-1,2.08-.95,3.24-.65a55.9,55.9,0,0,1,8,3c3,1.27,4.59.34,5.62-2.69,5.88-17.18,11.25-34.53,16.91-51.78,1-3,.59-4.29-3-3.83-7.42,1-14.93,1.17-22.36,2.11a35.4,35.4,0,0,1-4,.17c-3.48.07-5-1.28-5-5.07s.84-5.44,4.85-5.72c14.6-1,29.15-2.7,43.74-4,1.26-.11,2.91.29,3.47-1.26.47-1.27-.82-2.05-1.55-2.91-10-12-20.63-23.54-30.67-35.55-2.55-3.06-5.46-4.72-9.6-3.73a17.8,17.8,0,0,1-6.47.13c-1.64-.21-3.48-.37-3.57-2.66s1.58-2.74,3.17-3.3a18.55,18.55,0,0,1,5.93-.7c2.8-.06,4.43-1.12,4.09-4.25-.4-3.64,0-7.32-.37-11-.32-3.12-1.55-5.07-5.15-4.29a13.28,13.28,0,0,1-4,.2c-1-.08-2.34-.06-2.78-.88-2.06-3.87-.74-8.09-.87-12.16-.07-2.29,2.23-2.56,3.93-3.18,2-.75,5.3.39,5.67-2.86A18.64,18.64,0,0,0,38.62,194c-.84-1.73-2.86-1.32-4.52-1.34-1.45,0-3.2.34-3.5-1.81-.28-1.95.08-3.69,2.13-4.57s5.29-.75,4.36-4.17c-1-3.78.55-8.76-4.17-11-3.34-1.57-3.14-3.83-1.2-5.86s2-4.38,1.57-6.9c-1.15-6.22-2.13-12.48-2.7-18.76-.6-6.65.57-7.55,7.49-8,6.14-.4,12.26-1.13,18.38-1.83,3.31-.38,4.22-1.94,3.73-5C59,117.33,58,109.91,57,102.48c-.49-4-2.24-4.93-6-4.31-4.59.77-9.17,1.72-13.83,2.07-2.25.17-5.28.8-6.25-1.73s-1.42-5.79.55-8.11a8.87,8.87,0,0,0,2-7.43c-1.16-8-.15-16.3-2.7-24.23-1.23-3.86.06-7.94.21-11.91.2-5.28-.61-10.55,0-15.83h8c1.66,1.86,2,4.21,2.21,6.52,1,14.77,2.14,29.54,3.31,44.3.16,2.1-1,5,2.63,5.52s7.64-1.56,8.53-4.45c.79-2.57.69-5.26.86-7.92.8-12.95,1.51-25.91,2.86-38.82.19-1.82.26-3.68,1.6-5.15h4c1.53,1.65,1.38,3.68,1.19,5.66-1.38,14.37-2.25,28.76-3,43.17-.24,4.65-.12,4.85,4.08,3.5,6.48-2.09,13-4,19-7.42,4.61-2.61,4.83-3.16,2.25-7.65-5.9-10.21-12-20.32-17.87-30.53C69.44,35.66,67.45,33.8,68,31h5c4.51,3,5.86,8.28,8.53,12.56,1.85,3,3.47,3.56,6.25,1.48a46.6,46.6,0,0,1,5.52-3.31c4.47-2.48,9-4.85,9.7-10.73h8c3.39,5.41,2.26,11.9,4.26,18.16,3.79-4.37,6.48-9,9.4-13.55C125.84,33.78,127,32,129,31h9c.31,6.16.33,6.09,7,8.57,4.81,1.77,9.71,3.3,14.44,5.21,3.78,1.53,5.18.31,6.45-3.16C167.26,38,168.05,33.93,171,31h9c6.57,1.5,12.5,4.74,18.85,7,1.69-2.19,1.29-5.6,4.15-7h8c6.44,3.13,13.37,4.8,20.18,6.81,2.37.7,3.43-.28,3.52-2.65.05-1.49.12-3,1.3-4.16h4c1.56,1.63,1.45,3.72,1.19,5.64-.46,3.35,1.1,4.83,4.1,5.63a70.21,70.21,0,0,1,8.52,2.67c6.29,2.56,11.65-.89,17.31-2.26,2.35-.58,1.29-2.56.91-4.15-.59-2.47-2.59-4.76-1-7.53h4c2.49,1.36,2.75,4,3.56,6.31s2.12,3.2,4.54,2.64c2.91-.69,5.71-1.71,8.55-2.64,4.07-1.32-.08-4.42,1.35-6.31h15c3,2.12,6,.45,9,0h29c-.35,2.72-2.78,2.51-4.51,3-7.41,2-14.62,4.64-22.1,6.3-3.55.79-4.16,2.28-2.68,5.6,2.45,5.48,5.22,10.79,7.82,16.2a4.43,4.43,0,0,0,5.26,2.72q9.85-1.65,19.74-3.09c3.5-.51,4.35-2.66,3.88-5.71-.9-5.76-1.59-11.55-2.35-17.33-.34-2.62-1-5.31.94-7.66h8c2.74,5.69,2.42,12,3.26,18,1.36,9.82,1.15,9.86,10.93,8.48,4.29-.6,8.48-1.82,12.78-2.2,4.13-.36,6.24-2.31,6.77-6.47.52-4,1.52-7.84,2.16-11.78.34-2.11.53-4.32,2.1-6,8,0,8,0,8,8V690c0,8,0,8-8,8-1.61-3.35.2-6.48.74-9.65s-.51-3.87-3.41-2.92c-9.93,3.28-20.18,5.47-30.14,8.68-2.44.78-4.65,1.76-6.19,3.89H320c.25-2.71,2.64-2.62,4.38-3.15,7-2.13,14.1-3.94,21.12-6,3.32-1,5.09-2.68,5.32-6.23.19-3,.71-5.94,1.11-8.9.46-3.39-1-3.7-3.68-2.87-5.88,1.83-11.68,3.89-17.58,5.67-8,2.4-15.87,5-23.84,7.37-3.1.93-3.44,2.18-2.06,5s4,5.47,3.23,9.14H293c-1.89-1-2.82-2.75-3.68-4.56-3.51-7.35-7.46-14.49-10.7-22-1.8-4.15-2.8-4.21-7.94-2.61-3.84,1.19-3.25,3.29-2.24,6.08,2,5.63,3.83,11.34,5.95,16.94.72,1.91,2.12,3.92.61,6.12h-4c-2.17-1.11-2.68-3.28-3.32-5.32-1.79-5.7-4.24-11.16-6-16.88-.83-2.74-2.34-3.71-5.2-2.84-13,4-12,1.23-13.43,15-.35,3.36,0,7-2.08,10.07h-4c-2.22-3-1.34-6.37-1-9.62,1.55-13.36,3.2-26.7,4.53-40.08.18-1.75,1.42-4.62-1.16-5.16-2.87-.6-6.07,0-7.52,3.39-2.71,6.44-4.89,13.07-7.27,19.62-3.17,8.75-6.48,17.44-9.5,26.24A13.46,13.46,0,0,1,212,698h-9c-1-3,.74-5.48,1.55-8.1,1.73-5.54,3.94-10.91,5.88-16.39,1-2.71.69-4.54-2.5-5.1-4.74-.83-9.33-2.3-14.05-3.23-2.43-.48-4.28-.13-5.18,2.46-3,8.77-6.84,17.26-10.06,26-.54,1.45-.19,3-.64,4.39h-7c-.47-4.4,2.13-7.91,3.64-11.67,1.33-3.32,1.2-5.07-2.58-6.29-5.37-1.73-10.66-3.8-15.9-5.91-3.27-1.32-4.68-.27-6.06,2.76-3.28,7.24-6.17,14.72-11.1,21.11H129c-.84-3,1.1-5.09,2.35-7.35,8.8-15.77,15.38-32.49,21.28-49.5.9-2.59,2-5.56-2.51-5.68-14.31-.4-28.49-2.64-42.79-3.07-6.13-.19-6.38.17-5.28,6.13,3.2,17.36,5.79,34.83,9,52.2.43,2.37,1.51,4.86,0,7.27h-9c-2.29-4.21-2-9-3-13.49-1.38-6.08-1.58-6.34-7.54-5.37-6.38,1.05-12.78,2.06-19.15,3.21-4.91.87-5.46,2.24-3.24,6.77C70.53,692,73.36,694.32,73,698Z" transform="translate(-29.74 -31)"/><path class="cls-2" d="M31,31c1.11,7.58,1.66,15.13.09,22.75a6.73,6.73,0,0,0,1.11,5.66A9.38,9.38,0,0,1,33.87,65c-.33,6.52,1.3,12.9,1.09,19.37-.08,2.72,1.27,5.9-3.12,7.27-1.74.55-.89,3.66-.69,5.58.22,2.11,2.15,1.89,3.54,1.72,6.23-.78,12.46-1.58,18.64-2.65,3.05-.53,4.41-.26,4.79,3.41.87,8.37,2.3,16.69,3.67,25,.87,5.27.49,5.71-4.93,6.34-7.07.81-14.11,1.77-21.24,2-4.47.14-6.17,3.16-4.23,8.34,2.26,6,2.12,12.34,3.56,18.44.62,2.63,1.57,5.69-2.79,6.41-1.18.2-1.22,1.46-.93,2.48a1.78,1.78,0,0,0,2.42,1.14c3.05-.85,3.23.95,3.4,3.22a31.68,31.68,0,0,0,1.16,6.84c1.28,4.23,1.9,7.69-4.46,7.18a2.42,2.42,0,0,0-2.63,2.94c.28,2.81,2.19,1.17,3.39,1,4.38-.67,6.72.8,6.54,5.55a21.09,21.09,0,0,0,.77,4.38c1,5.53.27,6.51-5.22,7.07-2.07.22-5,.12-5.33,2.61-.48,3.53-1.55,7.65.65,10.63,1.32,1.79,4.7,1,7.08.18,3.31-1.16,4.71-.12,5.51,3.32,1.25,5.41-.25,10.91,1.12,16.36.61,2.44-2.34,2.7-4.33,2.83-2.8.2-5.67-.38-8.36.91-.75.36-1.67.52-1.66,1.56,0,1.37,1.09,1.52,2.1,1.52,2.5,0,5.24.6,7.44-.24,4.31-1.63,7,.09,9.52,3.1q14.53,17,29.14,34c1.41,1.63,3,3.1,4.48,4.69.74.82,2.12,1.5,1.47,2.86a3.21,3.21,0,0,1-3,1.56c-8.14,0-16.15,1.48-24.24,2.11-8.25.64-16.49,1.38-24.74,2-3.21.25-2.33,2.62-2.48,4.46-.15,2.06.3,3.7,2.91,3.52,6.12-.42,12.31-.35,18.32-1.4,4.26-.74,8.62,0,12.82-1.45,2.14-.74,2.87.51,2.11,2.82q-9.63,29.1-19.05,58.27c-.72,2.23-1.66,2.45-3.62,1.58-3.34-1.48-6.77-2.74-10.15-4.12-1.1-.44-2.32-1.11-3,.32a2.26,2.26,0,0,0,1.33,3.27,101,101,0,0,0,10,4.4c2.7.88,3.35,1.94,2.41,4.66-3.27,9.41-6,19-9.62,28.27-1.38,3.51-3.5,6.11-3.53,10.6,0,4.78-.85,9.78-.84,16,1.8-5.32,3.42-9.44,4.55-13.69.79-3,2-3.53,4.5-1.91,1.1.74,2.22,1.46,3.35,2.15,9.92,6,9.77,5.94,6.41,17.29C45.47,448,41.31,463,37,478c-.41,1.42-.16,4.06-2.64,3.06-3.8-1.53-3.06.82-3.42,3-1.2,7.34,1.25,11.59,8.61,14.51,10.39,4.14,10.09,4.79,7,15.51-1.58,5.41-3.35,10.79-4.44,16.31-.87,4.42-3.3,5.26-7.08,4.48-1.5-.31-3.6-1.76-3.81,1-.15,2.16-1.68,5.55,2,6.21,5.19.91,4.45,3.75,3.15,7.29-4.25,11.5-5.66,23.32-5.52,35.65.41,37.65.15,75.31.15,113-.31-.22-1,.51-1-.5,0-1.33,0-2.67,0-4q0-329,.06-658C30.06,34,28.91,32.11,31,31Z" transform="translate(-29.74 -31)"/><path class="cls-2" d="M111,698q-4-22.9-8-45.81c-1-5.85-2.08-11.69-3-17.56-.42-2.77-.16-4,3.8-3.89,15.72.46,31.26,3.2,47,3.3,4.79,0,5.33,1,3.74,5.77A327,327,0,0,1,129,698Z" transform="translate(-29.74 -31)"/><path class="cls-2" d="M352,31c-.05,8,1.36,15.8,2.75,23.61,1.13,6.32.4,7.47-5.9,8.45-6.85,1.06-13.74,2-20.51,3.44-2.48.53-3.33-.36-4.19-2.16-3.27-6.9-6.46-13.86-9.89-20.68-1.73-3.43.79-3.58,2.78-4.14,8.92-2.54,17.87-5,26.79-7.51A14.2,14.2,0,0,0,346,31Z" transform="translate(-29.74 -31)"/><path class="cls-2" d="M61,31c-1,12.53-1.91,25.07-2.93,37.6-.4,5,.27,9.89-.81,14.89-.71,3.25-1.71,4.3-5,4.64C43,89.07,43.7,89.22,42.85,80c-1.39-15.15-1.55-30.4-3.76-45.48A31.1,31.1,0,0,1,39,31Z" transform="translate(-29.74 -31)"/><path class="cls-2" d="M212,698c1.87-8.27,5.51-15.93,8.19-23.93,3.2-9.58,6.95-19,10.47-28.46.88-2.37,9.21-5.59,11.26-4.37a1.88,1.88,0,0,1,.81,2.13c-1.5,12.11-3.18,24.19-4.39,36.33-.6,6.07-1.88,12.13-1.34,18.3Z" transform="translate(-29.74 -31)"/><path class="cls-2" d="M68,31c7.93,13.42,15.81,26.87,23.86,40.21,1.17,1.93.43,2.55-1,3.48-8.26,5.57-17.76,8.15-27.09,11.11-2.19.69-2.86-.73-2.63-2.87C62.6,69.61,63.4,56.24,64,42.86c.18-4,1.44-7.84,1-11.86Z" transform="translate(-29.74 -31)"/><path class="cls-2" d="M398,31c-.47,7.6-2.31,15-3.89,22.36-.3,1.4-.63,2.37-2.34,2.64-8.79,1.37-17.56,2.79-26.3,4.37-1.89.34-2.34-.22-2.47-1.89-.72-9.19-2.78-18.23-3-27.48Z" transform="translate(-29.74 -31)"/><path class="cls-2" d="M308,698c-1.71-3.42-3.19-7-5.19-10.23-1.83-3-.68-3.82,2.09-4.68,14.57-4.52,29.09-9.24,43.66-13.77,5.42-1.69,5.42-1.55,4.57,4-.47,3.1-1.17,6.25-1,9.35.24,4.92-2.21,6.5-6.58,7.52-7.73,1.82-15.3,4.3-22.93,6.55A16.48,16.48,0,0,0,320,698Z" transform="translate(-29.74 -31)"/><path class="cls-2" d="M178,698c-1.67-1.21-1.4-2.76-.77-4.38,3.56-9.12,7.13-18.24,10.64-27.38,1-2.61,2.3-3.36,5.28-2.49,5.39,1.58,11,2.42,16.48,3.63,2.66.59,4,1.71,2.78,4.9-3.3,8.51-6.3,17.14-9.41,25.72Z" transform="translate(-29.74 -31)"/><path class="cls-2" d="M139,698q5.73-12.45,11.43-24.89c.8-1.76,1.75-1.89,3.53-1.19,6.94,2.76,13.9,5.51,21,7.83,3,1,2.61,2.52,1.82,4.47-1.86,4.62-3.84,9.19-5.78,13.78Z" transform="translate(-29.74 -31)"/><path class="cls-2" d="M241,698c-.07-6.8,1.23-13.47,1.95-20.19.19-1.8.85-2.73,2.54-3.1.8-.18,1.58-.48,2.38-.69,4.3-1.11,9.36-4.12,12.7-2.8,3.54,1.4,3.32,7.75,4.95,11.86,2,4.92,3.66,9.94,5.48,14.92Z" transform="translate(-29.74 -31)"/><path class="cls-2" d="M73,698c-2.1-3.56-4.3-7.07-6.28-10.7-1.82-3.32-.55-5.43,3-6,8.45-1.46,16.92-2.8,25.37-4.23,2.74-.46,4.09.89,4.48,3.35.92,5.86,2.69,11.61,2.39,17.63Z" transform="translate(-29.74 -31)"/><path class="cls-2" d="M275,698c-2.89-8.43-5.57-17-8.79-25.26-1.13-2.92-.32-3.67,2.15-4.41,10-3,8.38-4.29,12.52,5.17,3.65,8.34,8.05,16.35,12.12,24.5Z" transform="translate(-29.74 -31)"/><path class="cls-2" d="M271,31c1,3,1.78,6,3,8.87,1,2.44.45,3.13-2,4.25C261.51,49,251.61,46.5,241.7,42.39c-1.41-.58-2.58-.76-2.1-3,.59-2.7.31-5.58.4-8.38Z" transform="translate(-29.74 -31)"/><path class="cls-2" d="M171,31c-1.75,4.8-3.54,9.58-5.24,14.39-.62,1.78-1.62,2.21-3.38,1.59-8.41-3-16.81-6-25.27-8.77-2.25-.75-1.84-1.81-1.07-3.29.67-1.3,2.05-2.25,2-3.92Z" transform="translate(-29.74 -31)"/><path class="cls-2" d="M359,698c-.11-2.11.1-3.49,2.83-4.24,11.81-3.21,23.52-6.83,35.26-10.29,2.61-.77,4.33-.78,3.33,2.91S398.79,694.12,398,698Z" transform="translate(-29.74 -31)"/><path class="cls-2" d="M103,31c.81,4.47-.78,7.48-5,9.5a94.69,94.69,0,0,0-11.13,6.6c-2.55,1.68-4.09,1.17-5.49-1.38C78.66,40.77,75.8,35.9,73,31Z" transform="translate(-29.74 -31)"/><path class="cls-2" d="M39,698c0-11.43,0-11.42,11.15-13.06,1.46-.21,2.88-.72,4.34-.91,8-1,8.31-.65,7.47,7.65-.21,2.12-.63,4.21-1,6.32Z" transform="translate(-29.74 -31)"/><path class="cls-2" d="M129,31c-4.43,6.9-8.46,14.09-14.69,21.48C113.1,44.59,112.05,37.79,111,31Z" transform="translate(-29.74 -31)"/><path class="cls-2" d="M293,31c3.08,6.13,3.08,6.13-3,8.13-10.39,3.42-10.39,3.42-15-8.13Z" transform="translate(-29.74 -31)"/><path class="cls-2" d="M236,31c0,9.2,0,9.29-8.89,7-4.44-1.16-8.79-2.68-13.14-4.12-1.39-.45-2.89-1-3-2.85Z" transform="translate(-29.74 -31)"/><path class="cls-2" d="M203,31c-3.34,8.41-3.36,8.46-12,5.11-3.77-1.47-7.69-2.67-11-5.11Z" transform="translate(-29.74 -31)"/><path class="cls-3" d="M317,31c-3,.46-6,4.84-9,0Z" transform="translate(-29.74 -31)"/><path class="cls-4" d="M65,698l.21-3.36c2,.51,2,2.25,2.79,3.36Z" transform="translate(-29.74 -31)"/><path class="cls-2" d="M135.69,319c11.74.09,19.87.27,27.95-.94,2.72-.41,4.1.51,4.76,3.48,1.88,8.39,4.14,16.7,6.32,25a5.73,5.73,0,0,1-1.93,6.23q-12.51,11.38-24.91,22.89a4.29,4.29,0,0,1-4.57,1q-20-6-40-12c-2.1-.63-3.23-1.21-2.5-4.08,3.18-12.33,6-24.75,8.86-37.16.51-2.22,1.18-3.27,3.78-3.5A207,207,0,0,1,135.69,319Z" transform="translate(-29.74 -31)"/><path class="cls-2" d="M177.52,434c-2.68,13.81-5.28,27.27-7.9,40.72-1,5-2,10-3,15.05-.53,2.77-2.09,4.06-4.63,5.63-8.69,5.36-15.62,3.36-22.48-3.18a41.4,41.4,0,0,0-9.44-6.42c-4-2.12-5-4.88-4.08-9.25,1.48-7.09,2.16-14.35,3.57-21.47,1.76-8.87,6.41-16.68,10-24.86,4.41-10.12,4.73-10,15.32-6.34,6.58,2.27,13.14,4.62,19.73,6.89C176.33,431.34,178.35,431.61,177.52,434Z" transform="translate(-29.74 -31)"/><path class="cls-2" d="M359.87,627.24c-.35,3-.56,5.93-1.11,8.84-.42,2.26-1.89,3.6-4.29,4.27-20.55,5.77-41.07,11.66-61.6,17.53-2.68.76-4.53.5-5.82-2.55-2.14-5-4.71-9.91-7.3-14.74a5.65,5.65,0,0,1-.09-6c2.76-5.12,5.4-10.32,7.8-15.62,1.6-3.53,4.21-4.41,7.68-3.91,20.73,3,41.45,6,62.19,8.91C359.58,624.28,360.12,625.34,359.87,627.24Z" transform="translate(-29.74 -31)"/><path class="cls-2" d="M154.06,209.8c-.28-2.27,1.09-2.66,3-2.87,8.36-.91,16.68-2.21,25.06-2.85,7.43-.57,7.52-.29,9.73,6.95,4.55,14.89,8.93,29.83,13.6,44.68,1,3.17-.14,4.37-2.84,4.91-10.52,2.1-21.05,4.14-31.57,6.19-1.43.27-2.57.13-3-1.65q-6.95-27.42-14-54.83A2.34,2.34,0,0,1,154.06,209.8Z" transform="translate(-29.74 -31)"/><path class="cls-2" d="M341.91,275.47c-1.83,5.79-3.58,12-5.77,18.08-2.74,7.64-3,7.75-10.3,3.82-16.22-8.7-32.41-17.45-47.19-28.54-4.19-3.14-4.33-4.18-.47-7.47,8.68-7.41,17.5-14.67,26-22.23,2.14-1.88,3.17-1.45,4.76.32,10,11.11,20.56,21.7,31.18,32.22A4.36,4.36,0,0,1,341.91,275.47Z" transform="translate(-29.74 -31)"/><path class="cls-2" d="M85.17,301.43c2.3,0,1.67,1.34,1.3,2.66q-4.64,16.28-9.23,32.54C70.12,361.68,63,386.71,56,411.79c-1.08,3.84-2.57,5.09-6.12,2.65-1.63-1.13-3.44-2-5.14-3.05-6.32-3.85-6.27-3.85-3.91-11.1,10-30.64,20.15-61.23,29.83-92,1.64-5.2,4-7.11,9.11-6.36A9.42,9.42,0,0,0,85.17,301.43Z" transform="translate(-29.74 -31)"/><path class="cls-2" d="M378.89,494.2q-1.65,11.76-3.28,23.51c-.55,3.92-1.34,7.82-1.53,11.76-.14,2.91-1.2,4-3.95,3.38-11.95-2.53-23.87-5.15-35.84-7.57-2.72-.55-3.45-1.39-2.88-4.3,2.07-10.52,3.85-21.09,5.56-31.67.67-4.16,1.83-5.93,6.81-4.71,10.56,2.6,21.32,4.38,32,6.29C378,491.28,379.28,491.8,378.89,494.2Z" transform="translate(-29.74 -31)"/><path class="cls-2" d="M171.87,145.81c-2.63,0-1.3-1.86-.9-3,2-6,4-11.94,6.19-17.86,4.88-13.39,10-26.72,14.69-40.16,1.16-3.29,2.51-4.13,5.77-2.78,5.51,2.28,11.15,4.26,16.77,6.26,2.91,1,3.53,2.51,2.61,5.63-4.22,14.28-8.14,28.65-12.11,43-.72,2.6-1.77,4-4.91,4.43C190.67,142.48,181.43,144.23,171.87,145.81Z" transform="translate(-29.74 -31)"/><path class="cls-2" d="M205.53,264a3,3,0,0,1,3.4,2.39c2.55,8.73,5.19,17.44,7.78,26.16.66,2.26.39,4.32-1.68,5.78-9.84,7-19.76,13.87-29.51,21-3.22,2.35-3.85.59-4.51-2.06-3.49-14.12-7-28.24-10.58-42.33-.62-2.39-.26-4.12,2.17-4.6C183.43,268.17,194.29,266.16,205.53,264Z" transform="translate(-29.74 -31)"/><path class="cls-2" d="M257.56,487.28c.36,1.84-1.24,2.13-2.38,2.48-8.22,2.57-16.5,5-24.7,7.6-2.74.88-3.85.26-4.56-2.56q-6.6-26.48-13.48-52.88c-.52-2,.14-2.52,2-3,6.23-1.67,12.43-3.51,18.59-5.45,1.89-.59,2.86,0,3.5,1.64q10.32,25.59,20.61,51.19C257.24,486.59,257.39,486.89,257.56,487.28Z" transform="translate(-29.74 -31)"/><path class="cls-2" d="M330,483.05c-1.65,9.21-3,17-4.43,24.81-.53,2.92-1.15,5.83-1.53,8.77-.8,6.15-1,6.41-6.85,5.23-11.16-2.27-22.3-4.71-33.5-6.76-3.57-.66-3.9-2-2.87-5.08q5.22-15.54,10.06-31.21c1-3.14,2.21-4,5.74-3.23,9.66,2.18,19.47,3.66,29.17,5.61C327.49,481.53,330.06,481.52,330,483.05Z" transform="translate(-29.74 -31)"/><path class="cls-2" d="M246.65,404.8c-6.12-1.4-12.25-2.77-18.35-4.24-1.66-.4-2.05-1.78-2.47-3.35-2.47-9.1-5-18.18-7.75-27.2-.73-2.4.1-3.25,2-4.68,9.08-6.85,19.54-8.06,30.38-8.39a154.4,154.4,0,0,0,15.75-1.58c2.53-.34,3.15.44,2.27,2.65q-8.93,22.39-17.88,44.77A3,3,0,0,1,246.65,404.8Z" transform="translate(-29.74 -31)"/><path class="cls-2" d="M54.76,448.61c3.31,1.42,6.54,2.72,9.7,4.16,8.75,4,17.48,8.05,26.21,12.08,1.83.85,3.53,1.4,2.48,4.29q-5.58,15.44-10.64,31.05c-1,3.08-2.36,2.9-4.75,1.74C67.31,496.87,56.83,491.86,46.28,487c-2.44-1.13-2.62-2.94-2.09-4.91,2.88-10.53,5.9-21,8.85-31.54C53.32,449.54,53.55,448.58,54.76,448.61Z" transform="translate(-29.74 -31)"/><path class="cls-2" d="M103.8,602c13.74,1.71,27.57.46,41.32,1.19,5.45.29,10.9.78,16.37.8,2.35,0,3.9.24,2.92,3.39-2.12,6.8-3.95,13.69-5.87,20.55-.62,2.2-1.41,2.85-4.17,2.53-10-1.19-20.1-2-30.17-2.36-6.63-.25-13.17-1.48-19.86-1.24-3.61.13-6.58-1.13-6.55-6.13a47.12,47.12,0,0,0-2.09-13.67c-1.32-4.42.13-5.44,4.1-5.08C101.12,602.1,102.46,602,103.8,602Z" transform="translate(-29.74 -31)"/><path class="cls-2" d="M207,167.3c0-5.16.05-10.32,0-15.48,0-2.27.35-3.55,3.12-3.94,10.13-1.43,20.21-3.24,30.32-4.84,2.84-.45,4.48.24,4.82,3.77,1,10.51,2.47,21,3.76,31.46.35,2.9-1.06,4.37-3.84,4.69-8.86,1-17.71,2.14-26.58,3-3.57.34-8,2.94-10.53.36-2.78-2.79-.72-7.61-1-11.53C206.85,172.3,207,169.79,207,167.3Z" transform="translate(-29.74 -31)"/><path class="cls-2" d="M249.26,558.85c-5.42.25-7.74-1.45-9-6.62-3.91-15.42-7.75-30.86-11.78-46.24-.72-2.77.09-4.09,2.6-4.85,8.26-2.5,16.54-4.92,24.73-7.6,2.64-.87,4.11-.26,5.12,2.18,1.77,4.3,3.49,8.62,5.43,12.84.76,1.66,0,2.94-.43,4.29Q259.24,534,252.45,555C251.92,556.7,251.83,558.85,249.26,558.85Z" transform="translate(-29.74 -31)"/><path class="cls-2" d="M41.62,682.17c-2.92.77-3.19-.52-3.8-3.22-1.53-6.72.09-13.61-1.72-20.28-.85-3.12.46-4.48,4.14-4.8,14.64-1.29,29.23-3.11,43.84-4.7,2.64-.28,5.29-.36,7.92-.67s2.63,1.65,2.91,3.16c1.06,5.85,2,11.72,2.94,17.59.26,1.65.48,3.32-2,3.74Q68.73,677.52,41.62,682.17Z" transform="translate(-29.74 -31)"/><path class="cls-2" d="M87.33,285.79c-5.06-2.64-7-6.9-10-10.1-8.12-8.73-15.9-17.8-23.78-26.77C50.12,245,49,240.29,49,235.18c0-3.79.47-7.61-.77-11.39-.73-2.24.06-3.58,2.9-3.87,7.22-.73,14.41-1.88,21.6-2.86,5.86-.8,6.84.34,7.37,6.21.88,9.54,2.24,19,3.36,28.55C84.72,262.89,86,274,87.33,285.79Z" transform="translate(-29.74 -31)"/><path class="cls-2" d="M337.4,127.85c2.46-.29,3.62,1.06,4.59,3.06q5.13,10.54,10.49,21c.95,1.85.82,3-.46,4.82-2.53,3.6-5.77,6.89-6.35,11.66-.17,1.49-1.28,2.47-3.12,2.66-7.87.84-15.72,1.82-23.57,2.82-2.27.29-2.74-.76-3-2.77-1.74-12.08-3.61-24.14-5.54-36.19-.25-1.58-.23-2.56,1.6-2.85C320.48,130.66,328.94,129.25,337.4,127.85Z" transform="translate(-29.74 -31)"/><path class="cls-2" d="M177.39,604c4,.39,7.43.72,10.88,1.07,1.86.2,2.87,1.49,3.73,3,4.31,7.48,8.58,15,13,22.38.87,1.48,1.17,2.6,0,4q-6.9,8.77-13.7,17.64a4.79,4.79,0,0,1-5.34,1.73c-7.09-1.66-14.17-3.37-21.25-5-2.87-.67-4.13-1.73-2.87-5.15a303.78,303.78,0,0,0,10.57-35.73C173.23,604.54,174.72,603.37,177.39,604Z" transform="translate(-29.74 -31)"/><path class="cls-2" d="M405,220c0,7.82-.2,15.65.09,23.46.13,3.59-1.19,4.13-4.22,3.53-10.37-2.06-20.75-4-31.13-6-2-.37-2.36-1.18-1.71-3.11,3.35-9.89,6.63-19.81,9.75-29.78.66-2.08,1.89-2.83,3.76-3.42,6.49-2,12.18-5.36,15.81-11.35,1.6-2.64,3.79-1.38,5.76-1.19,2.52.25,1.85,2.38,1.86,3.91C405,204,405,212,405,220Z" transform="translate(-29.74 -31)"/><path class="cls-2" d="M285,343.13c1.1.49,2.44,1.15,3.83,1.69,8,3.11,16.05,6.25,24.12,9.26,2.49.93,3.26,2,2.3,4.81-3.24,9.4-6.22,18.89-9.14,28.39-1,3.21-2.36,4.24-5.8,3C291.09,387,281.78,384,272.44,381c-3.18-1-3.71-2.53-2.5-5.49,4.11-9.95,8.07-20,12-30C282.49,344.21,283.07,343.16,285,343.13Z" transform="translate(-29.74 -31)"/><path class="cls-2" d="M385.76,410.17c-2.07,12.88-4.1,25.77-6.21,38.65-1.47,9-3.14,17.89-4.54,26.87-1,6.24-1,6.44-7.32,5.31-7.16-1.29-14.28-2.75-21.44-4-2.67-.47-2.34-1.85-1.45-3.54,2.48-4.71,5-9.37,7.49-14.09q13-25,26-50c1.05-2,2.07-3.95,4.85-3.17C385.11,406.76,386.36,407.92,385.76,410.17Z" transform="translate(-29.74 -31)"/><path class="cls-2" d="M333.85,384c-.8-.06-1.14-.07-1.47-.12-10.71-1.39-10.65-1.37-7.32-11.72q5.81-18,11.37-36.1c.84-2.74,1.64-4.24,5.13-3.23,7,2,14.13,3.56,21.25,5.08,2.86.61,3.46,2.06,2.88,4.63-1.75,7.75-3.49,15.49-5.09,23.27a7.61,7.61,0,0,1-4.18,5.61c-6.53,3.62-12.84,7.63-19.26,11.46A6.05,6.05,0,0,1,333.85,384Z" transform="translate(-29.74 -31)"/><path class="cls-2" d="M151.13,91.31c-4.58-1.85-8.75-3.5-12.89-5.21-4.76-2-9.46-4.07-14.25-5.95-7-2.77-9.52-6.05-9.84-13.16-.08-1.57.93-2.36,1.74-3.4,4.08-5.22,8.2-10.41,12.13-15.73,1.56-2.11,2.89-3.19,5.77-2.12,8.4,3.13,16.9,6,25.42,8.79,2.54.84,2.77,1.9,2,4.36-3,10-5.61,20.11-8.44,30.16C152.53,90,152.37,91.49,151.13,91.31Z" transform="translate(-29.74 -31)"/><path class="cls-2" d="M347.41,190.11c0,1.56-1.25,2.31-2.19,3.13q-16,13.88-32,27.64c-2.51,2.16-5.13,4.19-7.63,6.36-1.54,1.34-2.6,1.25-4.17-.21-2.91-2.69-6.12-5.08-9.26-7.51-2-1.54-2.4-3.23-1.65-5.68q3.06-10,5.66-20.11a5.51,5.51,0,0,1,5.11-4.59c12.15-1.43,24.31-2.77,36.47-4.15,1-.11,2-.2,2.95-.39C344.48,183.85,347.38,186.21,347.41,190.11Z" transform="translate(-29.74 -31)"/><path class="cls-2" d="M123.66,183c-4.63-.1-9.26-.48-13.85-.7s-5.13-2.63-5.69-5.74c-2.25-12.5-4.27-25-6.7-37.51-.66-3.42.44-3.93,3.41-4.12,6.08-.38,12.15-1.07,18.21-1.8,3-.35,4.38.4,5.18,3.64,3.5,14.3,7.26,28.53,11.15,42.73.81,3-.17,3.56-2.73,3.51C129.65,183,126.65,183,123.66,183Z" transform="translate(-29.74 -31)"/><path class="cls-2" d="M268.07,502.38q-7-17.46-14.08-34.91c-1.67-4.16-3.29-8.34-5-12.47-.55-1.32-1.12-2.41.64-3.29,13.81-6.88,27.6-13.8,42.73-21.38-8,24.92-15.59,48.48-23.17,72Z" transform="translate(-29.74 -31)"/><path class="cls-2" d="M364.06,68.76c-.21-2.94.53-4.4,3.42-4.82,7-1,14-2.31,21-3.65,3.63-.7,4.54-.11,3.76,4-5,26-9.57,52-14.31,78.07-.18,1-.6,1.9-.87,2.86s-.65,1.61-1.64,1.54-1.29-.87-1.42-1.75c-.66-4.41-1.44-8.81-2-13.23-2.1-17.57-4.09-35.14-6.21-52.71C365.38,75.47,364.6,71.91,364.06,68.76Z" transform="translate(-29.74 -31)"/><path class="cls-2" d="M358.2,402l14.11,2.67c2.84.54,2.93,2,1.73,4.3q-14.24,26.87-28.35,53.81c-1.26,2.4-1.92,3.15-4.59,1.13-4.69-3.56-8.36-8.08-12.69-11.95-2-1.78-1.26-3.54-.17-5.35,8.11-13.52,16.17-27.06,24.39-40.51C353.83,404.1,354.73,401.14,358.2,402Z" transform="translate(-29.74 -31)"/><path class="cls-2" d="M319.73,540.62c-2.47,14-4.62,27-7.16,39.9-.65,3.34.7,8.05-2.44,9.72-2.72,1.44-6.63-.58-10-1.16q-12.67-2.19-25.41-4c-1.84-.27-2.34-1.06-2.86-2.71-2.74-8.67-2.82-8.66,4.8-13.7q19.49-12.9,39-25.75C316.61,542.26,317.65,541.77,319.73,540.62Z" transform="translate(-29.74 -31)"/><path class="cls-2" d="M302.83,104c-3.61.06-3.95-3.07-4.75-5.41-4.42-12.89-8.69-25.83-13-38.75-3.42-10.3-3.41-10.29,7.09-12.88a23.78,23.78,0,0,0,4.28-1.29c2.33-1.07,3.72-.38,4.8,1.84Q313.17,72,325.18,96.38c1.05,2.13.9,3.29-1.81,3.75C316.53,101.29,309.73,102.69,302.83,104Z" transform="translate(-29.74 -31)"/><path class="cls-2" d="M344.26,263.56c-.47-.42-1.12-.93-1.7-1.51-9.19-9.18-18.34-18.41-27.6-27.52-2.1-2.07-1.87-3.35.31-5.17,6.75-5.61,13.44-11.3,20-17.2,1.94-1.77,3.38-2.07,5.63-.79,5.06,2.86,10.22,5.55,15.38,8.23,2,1,3.08,2.08,2.22,4.67-4.11,12.26-8,24.6-12.07,36.89C346.08,262.08,346.34,263.72,344.26,263.56Z" transform="translate(-29.74 -31)"/><path class="cls-2" d="M146,501.44c-12.13,4.66-23.58,9-35,13.47a7.71,7.71,0,0,1-7.06-.38c-3.79-2-7.76-3.76-11.74-5.42-2.63-1.09-3.36-2.39-2.32-5.3q5.19-14.52,9.77-29.25c1-3.27,2.17-3.51,4.81-1.68C118,482.31,131.66,491.63,146,501.44Z" transform="translate(-29.74 -31)"/><path class="cls-2" d="M279,522.47c13.31,2.62,26.11,5.13,38.88,7.7,1.27.26,2.65.76,2.95,2.33s-.63,2.7-2,3.6q-25,16.24-49.93,32.62c-1.23.8-2.23,1.48-3.46.19s-2.85-2.32-2.09-4.62c4.34-13.22,8.6-26.47,12.93-39.7C276.77,523.12,277.51,521.7,279,522.47Z" transform="translate(-29.74 -31)"/><path class="cls-2" d="M56.49,571.21c-4.88-.73-9.76-1.61-14.67-2.13-2.43-.25-2.58-1.07-2-3.17,3.59-12.22,7-24.48,10.57-36.72,1.84-6.35,3.81-12.67,5.63-19,.79-2.78,2-3.1,4.67-1.87,14.9,6.91,14.84,6.82,10.88,22.51-3,11.69-5.82,23.4-8.34,35.18C62.39,570.1,60.7,571.9,56.49,571.21Z" transform="translate(-29.74 -31)"/><path class="cls-2" d="M171,489.05c1.89-9.8,3.53-18.4,5.21-27,1.59-8.1,3.39-16.16,4.74-24.3.58-3.5,1.83-3.95,5-3,12,3.71,12,3.62,15,15.74,2,8,4,16.05,6.16,24,.57,2.07.57,3.38-1.74,4.22q-15.41,5.66-30.74,11.49C172,491.29,170.81,490.72,171,489.05Z" transform="translate(-29.74 -31)"/><path class="cls-2" d="M350.41,402c-.32.62-.66,1.37-1.08,2.08q-11.73,19.62-23.49,39.23c-1.61,2.69-2.67,4.2-6.15,1.23-4.16-3.54-7.58-7.93-12.24-10.88-1.56-1-1.4-2.33-.87-3.93,3.47-10.54,6.92-21.08,10.23-31.67.83-2.66,2.21-3.25,4.81-2.76,8.75,1.67,17.53,3.16,26.3,4.7C349.07,400.2,350.29,400.24,350.41,402Z" transform="translate(-29.74 -31)"/><path class="cls-2" d="M136.56,590c-12.18.41-25.08-1.76-38.06-1-2.92.17-3.77-.91-3.1-3.9,1.4-6.29,2.49-12.65,3.6-19,.46-2.66,1.09-4.05,4.48-3.27,14.68,3.36,29.46,6.27,44.15,9.57,9.22,2.07,8.59,2.19,7.74,11.83-.48,5.41-2.56,6.2-7,5.83C144.71,589.77,141,590,136.56,590Z" transform="translate(-29.74 -31)"/><path class="cls-2" d="M376.65,291.8q-4.36,20.35-8.7,40.71c-.46,2.18-1.78,1.92-3.37,1.56q-11.59-2.61-23.23-5.15c-2.24-.49-1.8-2-1.33-3.45q6-19.2,12.11-38.41c.49-1.53.9-3,3.42-2.44,6.29,1.39,12.66,2.34,19,3.49C376.64,288.5,377.1,290,376.65,291.8Z" transform="translate(-29.74 -31)"/><path class="cls-2" d="M364.9,147.12Q349.43,115.54,334,84c-1.68-3.44-3.41-6.86-5.12-10.28-1-2-1.23-3.34,1.73-3.73,7.37-1,14.73-2,22-3.42,2.54-.49,3.18,0,3.47,2.44,1.21,10.16,2.61,20.3,3.92,30.46q2.31,17.93,4.6,35.86c.5,3.9.92,7.81,1.38,11.71Z" transform="translate(-29.74 -31)"/><path class="cls-2" d="M74.88,429.53c-3.9-1.55-8.26-3.16-12.5-5-2-.88-.79-2.61-.43-3.94q5-17.94,10-35.85c1.48-5.26,3.09-10.48,4.53-15.74.73-2.64,2-3.41,4.72-2.47,4.85,1.68,9.78,3.13,14.74,4.45,2.42.65,2.25,2.1,1.63,3.79Q87.82,401.08,78,427.4C77.54,428.74,77.09,429.93,74.88,429.53Z" transform="translate(-29.74 -31)"/><path class="cls-2" d="M33.78,627.87c-.65-2.83,1.25-3.74,5.34-4,15.48-1,30.93-2.47,46.38-3.79,2.55-.22,4.43-.19,4.66,3.32a48.85,48.85,0,0,0,2.07,12.16c1.26,3.81-.47,4.9-3.43,5.28-6.55.83-13.12,1.45-19.68,2.16-8.68.94-17.4,1.67-26.05,2.88-7.06,1-7.93.42-8.12-6.72C34.87,635.87,34.29,632.59,33.78,627.87Z" transform="translate(-29.74 -31)"/><path class="cls-2" d="M145.2,231.27c1-.21,1,1.66,1.23,2.73,3.1,12,6.07,24.07,9.13,36.11.62,2.43-.16,3.2-2.49,2.41q-17.67-6.07-35.31-12.18a5.36,5.36,0,0,1-3.64-4.95,155.39,155.39,0,0,0-2-16.23c-.3-1.58.06-2.86,2.15-3.16C124.21,234.54,134.16,233,145.2,231.27Z" transform="translate(-29.74 -31)"/><path class="cls-2" d="M145.2,186.3q-7.09-27.54-14.17-55.08c-.08-.32-.07-.66-.15-1-.77-3.28-3.93-7.54-1.68-9.52,2-1.79,6.35,1.32,9.59,2.42,8,2.71,15.83,6,23.87,8.52,3.13,1,2.93,2.5,2.1,4.74l-18.4,49.81Z" transform="translate(-29.74 -31)"/><path class="cls-2" d="M263.27,57.7c-.29-1.58,0-3,1.81-3.52,3.5-1,7-2.06,10.54-2.88,2.63-.61,2.85,1.69,3.4,3.34,3.7,11,7.33,22.06,11.05,33.07q2.39,7.07,5,14c1,2.67.51,3.88-2.56,4.33a137.83,137.83,0,0,0-18,3.4c-3.94,1.12-5.06-.75-5.32-3.59-.76-8.23-2-16.39-3.16-24.57C264.94,73.46,264.18,65.57,263.27,57.7Z" transform="translate(-29.74 -31)"/><path class="cls-2" d="M237.42,354.12c-4,.56-6.44-1.16-8.7-4.43-4.32-6.26-9.1-12.21-13.76-18.23-1.64-2.11-1.87-3.47.86-5a82.83,82.83,0,0,0,12-8c3.15-2.65,5.6-2,8.23.24,7.31,6.23,14.57,12.52,21.88,18.74,4,3.44,8.13,6.78,12.16,10.22.68.59,1.84,1.31,1.05,2.41A3.25,3.25,0,0,1,269,351C258.45,352.05,247.93,353.08,237.42,354.12Z" transform="translate(-29.74 -31)"/><path class="cls-2" d="M86.87,574c-6.58-.7-12.66-1.33-18.73-2-2.79-.31-1.8-2-1.4-3.67q4.89-20,9.66-40.06A38.59,38.59,0,0,0,77.79,522c.3-4.18,2.61-4.05,5.43-2.74,4.22,2,8.32,4.19,12.55,6.14,2.64,1.21,2.47,3.34,2.06,5.48-2.55,13.31-5.27,26.58-7.7,39.91C89.67,573.23,89,574.52,86.87,574Z" transform="translate(-29.74 -31)"/><path class="cls-2" d="M293.07,190.21c-2.35,8.45-4.54,16.21-6.63,24a4.52,4.52,0,0,1-3.27,3.27c-8.4,3.08-16.78,6.21-25.07,9.55-2.18.87-2.73.32-3.51-1.64-3.33-8.48-5.71-17.26-8.3-26-.84-2.85.79-3.2,3.16-3.49C263.67,194.17,277.87,192.22,293.07,190.21Z" transform="translate(-29.74 -31)"/><path class="cls-2" d="M312,171.83c-.05,1.06.32,2.85-2.18,3.14-7.54.88-15.08,1.84-22.62,2.79-1.58.2-1.95-.69-2.16-2-1.95-12.07-3.95-24.13-5.89-36.2a1.92,1.92,0,0,1,1.75-2.49c7.67-1.25,15.32-2.55,23-3.81,2.08-.34,2.71,1.34,2.92,2.72C308.55,147.72,310.2,159.5,312,171.83Z" transform="translate(-29.74 -31)"/><path class="cls-2" d="M273,303.83c-.93,1.5-1.72,2.94-2.66,4.27-4.14,5.78-8.6,11.36-12.4,17.36-2.26,3.57-4.18,3.24-6.85,1-6.92-5.9-14-11.64-20.75-17.72-7.36-6.59-7.21-6.68,1.11-12.4,4.5-3.09,9-6.2,13.26-9.61,1.76-1.42,3.1-1.66,4.81-.44q10.92,7.78,21.8,15.61A12.18,12.18,0,0,1,273,303.83Z" transform="translate(-29.74 -31)"/><path class="cls-2" d="M239.44,205.56c2.32,7,4.31,12.95,6.25,18.91,4.13,12.63,9,24.95,15.89,36.37,1.22,2,1.32,2.94-.76,4.33-4.28,2.83-8.41,5.89-12.44,9.05-1.8,1.42-2.54,1.58-3.46-.82-6-15.78-12.2-31.52-18.35-47.27-.38-1-.74-1.95-.1-2.84C230.6,217.59,234.78,211.92,239.44,205.56Z" transform="translate(-29.74 -31)"/><path class="cls-2" d="M70.53,130c-2.76.45-4.75-.26-4.73-4.35a21.37,21.37,0,0,0-1-6.82c-1.72-5.07,0-6.53,5-7.41,13.83-2.42,27.55-5.5,41.32-8.27,2.57-.52,4.38,0,5,3.18a119.39,119.39,0,0,0,3.81,13.89c1.62,4.89-1.2,5.48-4.89,5.78-6.42.52-12.82,1.25-19.23,1.83C87.58,128.59,79.34,129.27,70.53,130Z" transform="translate(-29.74 -31)"/><path class="cls-2" d="M405,629.47c0,3.83,0,7.67,0,11.5,0,2-.6,3.22-2.91,2.87-10.62-1.61-21.22-3.27-31.86-4.73-2.21-.31-3.51-.91-3.22-3.3,1-8.2,2-16.4,3.13-24.59.18-1.39,1.18-1.71,2.61-1.45,9.93,1.78,19.86,3.52,29.81,5.14,2.29.38,2.46,1.77,2.45,3.56C405,622.14,405,625.8,405,629.47Z" transform="translate(-29.74 -31)"/><path class="cls-2" d="M233.36,50c-1.48,4.92-2.63,10-4.5,14.73-2.37,6-5.36,11.78-8,17.68-1,2.12-2.26,3.12-4.7,2.15-6-2.39-12-4.83-18.1-6.94-2.52-.88-2.93-1.91-2-4.29,3.75-9.92,7.38-19.89,11-29.87.68-1.89,1.71-2.7,3.75-2.07,7,2.16,13.93,4.26,20.9,6.39C232.77,48.12,234.06,48.32,233.36,50Z" transform="translate(-29.74 -31)"/><path class="cls-2" d="M92.18,235c-1.21,0-3.08.15-3.23-2.9a130.11,130.11,0,0,0-1.4-13.79c-.37-2.32.5-3.06,2.46-3.29q21.38-2.52,42.75-5.05a26.69,26.69,0,0,0,3.87-.74c2.28-.63,3.56.45,4.1,2.47,1.12,4.15,2.17,8.32,3.11,12.51.42,1.86-.26,3.37-2.35,3.67C125.34,230.25,109.18,232.56,92.18,235Z" transform="translate(-29.74 -31)"/><path class="cls-2" d="M271.09,118.11c-.9-3.32,1.31-4.43,3.94-4.93,16.56-3.1,33.15-6,49.67-9.29,3.16-.63,4.29.19,5.32,3a47.87,47.87,0,0,0,4.44,8.92c2.35,3.69.2,4.62-2.75,5.11Q318.77,123,305.79,125c-10.12,1.52-20.28,2.81-30.37,4.49-2.45.4-3.59.15-3.39-2.41C272.27,124,270.4,121.24,271.09,118.11Z" transform="translate(-29.74 -31)"/><path class="cls-2" d="M347.21,386.57c6.91-4.27,12.57-7.83,18.3-11.28,6.1-3.67,12.38-7.05,18.35-10.91,2.65-1.71,3.8-1.27,5.56,1.16a124.41,124.41,0,0,0,10.37,12.64c4.13,4.38,6,9.18,5.3,15.23-.31,2.5-.52,3.33-3.46,2.78C384,392.91,366.38,389.93,347.21,386.57Z" transform="translate(-29.74 -31)"/><path class="cls-2" d="M197,434.51c-12.67-4.39-24.08-8.36-35.52-12.27-2.73-.93-3.36-2.4-2.55-5.2,2.13-7.31,4.13-14.66,5.82-22.07.71-3.09,2-3.31,4.55-2.38a40.46,40.46,0,0,0,5.76,1.56c8.41,1.76,14.46,5.08,15.47,15.21C191.35,417.46,194.55,425.32,197,434.51Z" transform="translate(-29.74 -31)"/><path class="cls-2" d="M96.25,182.21c-5-.58-9.56-1.55-14.23-1.28-2,.11-2.64-1.31-3-3.19-2.6-11.77-5.24-23.53-8.11-35.24-.73-3-.83-4,2.91-4.75,5.08-1,10.28,0,15.26-1.63,1.65-.53,3.56-.44,4,2.27,2.47,13.79,5.27,27.52,7.55,41.35C101.26,183.58,97.34,180.94,96.25,182.21Z" transform="translate(-29.74 -31)"/><path class="cls-2" d="M100.69,292.09c-2.85.21-4.45-.21-4.84-3.85-1.64-15.42-3.72-30.8-5.67-46.18-.22-1.78.15-2.81,2.18-3.06,3.93-.5,7.83-1.21,11.73-1.85,2.29-.37,3.66,0,4,2.83,1.49,12.12,3.25,24.21,4.89,36.31.54,3.92.88,7.88,1.59,11.77.36,2-.07,3-2.06,2.89C108.5,290.68,104.61,291.62,100.69,292.09Z" transform="translate(-29.74 -31)"/><path class="cls-2" d="M161,393.26c-2,8.11-4,15.94-5.95,23.81-.51,2.09-1.88,2.16-3.4,1.62-9-3.19-18-6.52-27.12-9.66-2.53-.87-2.24-2.28-1.57-4.23,2.36-6.89,4.76-13.77,6.87-20.74.74-2.44,1.83-2.67,3.95-2q11.63,3.51,23.31,6.83C159.45,389.55,161.55,390.37,161,393.26Z" transform="translate(-29.74 -31)"/><path class="cls-2" d="M227.39,354.91c.17,1.55-.9,2.21-1.86,2.77-8.89,5.16-17.8,10.26-26.7,15.39-2.29,1.31-3.38.95-4-1.93-1.77-7.73-3.81-15.41-6-23-.61-2.16-.26-3.2,1.64-4.42,5.71-3.68,11.3-7.54,16.81-11.51,1.64-1.18,2.72-.95,3.77.43q7.78,10.29,15.5,20.62A10.78,10.78,0,0,1,227.39,354.91Z" transform="translate(-29.74 -31)"/><path class="cls-2" d="M37,600.4c15.07.52,31,1.15,46.83,1.54,3.36.08,3,2.25,3.41,4.29,2.27,10.1,1.78,10.32-8.48,10.87-13.84.73-27.67,2-41.45,3.42-3.34.35-4.26-.56-4.31-3.47-.06-4.13.09-8.24-.88-12.35C31.45,601.82,32,599.06,37,600.4Z" transform="translate(-29.74 -31)"/><path class="cls-2" d="M405,592.26v7c0,8.13,0,8.09-8,6.59-7.13-1.32-14.26-2.71-21.43-3.77-2.84-.41-3.82-1.8-3.5-4.3q1.5-11.52,3.24-23c.31-2.08,1.13-3.46,3.94-2.83,7.4,1.66,14.88,3,22.33,4.43,2.37.47,3.68,1.68,3.51,4.44C404.82,584.6,405,588.43,405,592.26Z" transform="translate(-29.74 -31)"/><path class="cls-2" d="M138.79,315c-7.46.08-14.93-.28-22.35,1-3.84.64-5-1-4-4.89,3-12.57,2.94-12.63,16.78-14,9.86-1,19.73-1.84,29.59-2.82a2.69,2.69,0,0,1,3.23,2.32c1.27,4.8,2.58,9.6,3.79,14.41.54,2.15-.57,2.81-2.66,3.1C155.05,315.15,146.92,315,138.79,315Z" transform="translate(-29.74 -31)"/><path class="cls-2" d="M156.49,91c2.84-10.41,5.73-21,8.56-31.5.58-2.17,1.72-2.45,3.71-1.73,6.24,2.25,12.53,4.37,18.8,6.55,2.14.75,2.61,2,1.76,4.24-3.86,10.24-7.58,20.54-11.27,30.84-.7,1.94-1.53,2.75-3.66,1.8-5.44-2.45-10.93-4.82-16.46-7.07C156.34,93.49,155.8,92.71,156.49,91Z" transform="translate(-29.74 -31)"/><path class="cls-2" d="M62,97.71c-1-2.35,0-3.21,2.84-3.93,14.1-3.61,27.58-8.62,38.74-18.49,2.23-2,4.16-3,5,1.56A124.88,124.88,0,0,0,113.2,94.6c1.36,3.92-.56,4.83-3.45,5.25-10.49,1.51-20.8,3.91-31.16,6.05-2,.4-3.9.75-5.86,1.08C62.6,108.72,62.6,108.72,62,97.71Z" transform="translate(-29.74 -31)"/><path class="cls-2" d="M168.64,154.34c10.49-1.73,20.87-3.42,31.24-5.15,2.15-.36,3.12.44,3.12,2.63,0,11.16,0,22.32,0,33.48a3.17,3.17,0,0,1-.48,1.87c-2.35,3-12.68,2.27-14.79-1.1q-9.39-15-18.62-30A6.69,6.69,0,0,1,168.64,154.34Z" transform="translate(-29.74 -31)"/><path class="cls-2" d="M293.36,425.25c-5.44,2.75-9.87,4.95-14.26,7.21-9.6,4.93-19.23,9.8-28.73,14.92-3.2,1.73-4.56,1.22-5.56-2.29a45.75,45.75,0,0,0-4.25-10.58c-1.84-3.15-.63-5.26,1.11-7.54.7-.92,1.89-1.57,2.32-2.58,4.25-9.86,11.31-9.68,20.17-6.69C273.31,420.79,282.89,422.61,293.36,425.25Z" transform="translate(-29.74 -31)"/><path class="cls-2" d="M336.76,475.14c-9.56-1.87-19.12-3.76-28.69-5.6-3.24-.62-6.53-1-9.77-1.67-2.46-.5-3.65-1.57-2.6-4.56,2.73-7.83,5.06-15.79,7.59-23.69.72-2.24,1.74-3,3.85-1,10.74,9.87,21.59,19.63,32.38,29.44,1.21,1.1,2.61,2.13,1.41,4.19C340,473.88,339.2,475.59,336.76,475.14Z" transform="translate(-29.74 -31)"/><path class="cls-2" d="M197,514.4c.62,2.9-.5,3.18-1.63,3.65-7.66,3.19-15.27,6.5-23,9.63-1.53.62-3.28,1.65-4.61-.91-3-5.74-6.21-11.36-9.48-16.95-1.52-2.6-1.23-4.25,1.72-5.36,9.16-3.44,18.29-7,27.45-10.43,1.27-.48,3-1.6,3.73.67C193.39,501.67,195.37,508.68,197,514.4Z" transform="translate(-29.74 -31)"/><path class="cls-2" d="M405,434.23c0,6.66-.13,13.32.06,20,.09,2.87-.92,3.42-3.44,2.77-5.29-1.35-10.58-2.69-15.92-3.82-2.05-.43-2.89-1.18-2.51-3.32,2.29-12.84,4.64-25.67,6.66-38.55.48-3,1.7-3.62,4.25-3.09.16,0,.32.12.48.15C405,410.41,405,410.41,405,421.24Z" transform="translate(-29.74 -31)"/><path class="cls-2" d="M405,307.45c0,11.26-.06,22,.05,32.77,0,2.34-1.59,3.22-3.06,4.14-4.65,2.87-9.53,5.39-14.06,8.43-2.26,1.52-3.34.48-4.55-1-3.3-3.93-6.57-7.88-9.77-11.88-1.54-1.91-1.69-3.55.49-5.5,8.16-7.27,16.15-14.74,24.12-22.21A21.87,21.87,0,0,1,405,307.45Z" transform="translate(-29.74 -31)"/><path class="cls-2" d="M237.87,100.92c-2.8,11-5.73,22.34-8.64,33.74a2.85,2.85,0,0,1-2.7,2.39c-5.22.81-10.41,1.86-15.61,2.8-3.22.59-2.18-1.72-1.84-3.06,1.6-6.27,3.33-12.5,5.07-18.72,2.24-8,4.64-15.93,6.76-23.94.55-2,1.16-3,3.33-2.18,4,1.59,8,3.15,12,4.75C238,97.4,238.09,98.89,237.87,100.92Z" transform="translate(-29.74 -31)"/><path class="cls-2" d="M233.18,198.19c1.06.51,3.28-1.91,4.39.41,1,2.09-.77,3.68-1.94,5.26q-11.77,16-23.52,32c-.78,1.06-1.28,2.65-2.79,2.47-1.35-.16-1.27-1.76-1.6-2.83-2.94-9.66-5.63-19.4-8.89-28.95-1.44-4.22.75-5,3.77-5.41,6.38-.81,12.77-1.71,19.18-2C225.45,199,228.92,197.36,233.18,198.19Z" transform="translate(-29.74 -31)"/><path class="cls-2" d="M205.62,402.89c7.52,1.9,15,3.78,22.58,5.7,4.79,1.22,9.56,2.56,14.37,3.73,3,.73,3.86,2.08,1.81,4.71-2.24,2.87-4.47,5.74-6.59,8.7a10.73,10.73,0,0,1-6.86,4.35c-5.64,1.25-11.23,2.79-16.78,4.41-2.56.74-3.6-.05-4.2-2.55-2.13-8.83-4.42-17.62-6.66-26.43C202.76,403.46,203,402.12,205.62,402.89Z" transform="translate(-29.74 -31)"/><path class="cls-2" d="M324.75,328.91c-2.28,7.24-4.24,13.75-6.39,20.2-.77,2.31-2.62,2.07-4.53,1.29-8.3-3.35-16.58-6.76-24.95-9.92-3.16-1.2-4-2.8-2.65-5.93,2.11-4.86,4-9.81,5.93-14.76.87-2.22,1.93-3.06,4.52-2.08,8.52,3.23,17.14,6.22,25.74,9.25C323.79,327.45,324.85,328,324.75,328.91Z" transform="translate(-29.74 -31)"/><path class="cls-2" d="M140.68,548.65c-2.71,4.87-4.62,10.41-8.07,15.13-1,1.4-2.52.39-3.71.15-8.08-1.59-16.14-3.31-24.21-5-2.62-.54-4.07-1.56-3.34-4.78,1.46-6.42,2.46-12.94,3.71-19.41.43-2.25.92-4.3,4.16-2.7,9.66,4.78,19.4,9.38,29.08,14.1C139.27,546.64,140.6,546.89,140.68,548.65Z" transform="translate(-29.74 -31)"/><path class="cls-2" d="M322.65,570.57c1.25-7.32,2.24-13.86,3.52-20.33.55-2.82,2.54-1.93,4.26-1l24.76,12.88c1.92,1,3.87,1.94,5.8,2.92,8.85,4.5,7.11,2.78,6.17,11.38-.47,4.29-2.71,3.86-5.42,3.37-12.18-2.22-24.35-4.54-36.53-6.73C323.14,572.65,322.07,572,322.65,570.57Z" transform="translate(-29.74 -31)"/><path class="cls-2" d="M405,508.44c1.3,8.54-3.1,17.31-4.53,26.58-.42,2.76-2.2,3.38-4.72,2.78a61.85,61.85,0,0,0-8.21-1.74c-4.3-.42-6.62-1.56-5.65-6.79,2-11,3.52-22.1,5-33.2.39-2.86,1.31-3.15,3.86-2.38a40.32,40.32,0,0,0,9.69,1.87c4.1.18,4.95,2.22,4.6,5.74C404.84,503.27,405,505.28,405,508.44Z" transform="translate(-29.74 -31)"/><path class="cls-2" d="M181.87,551.91c13.9-5.08,26.23-9.51,38.48-14.13,2.26-.85,2.59.31,3,1.86,1.71,6.74,3.35,13.5,5.15,20.21.45,1.7-.65,2.17-1.47,3.22-5.15,6.59-10.31,6.58-17.61,2.51C200.94,560.85,192,556.85,181.87,551.91Z" transform="translate(-29.74 -31)"/><path class="cls-2" d="M175.13,591c-4.31,0-8.63-.06-12.94,0-2.35,0-3.25-.94-3.2-3.26.19-9.33,2.62-17.84,8.65-25.2,1.17-1.43,2-1.2,3.33-.57,6.72,3.22,13.44,6.44,20.2,9.58,1.73.81,2.65,1.73,2,3.82-.35,1,0,2.31-.16,3.46C191.63,591,191.62,591,179.61,591Z" transform="translate(-29.74 -31)"/><path class="cls-2" d="M243.18,603c-8.87-.08-16.08-7.06-16.2-15.48s8.83-16,16.59-15.73c10,.39,15.37,8,15.4,15.45A15.65,15.65,0,0,1,243.18,603Z" transform="translate(-29.74 -31)"/><path class="cls-2" d="M264,127.08c.2,2.86-.35,4.57-3.57,5-7.66,1-15.29,2.29-22.89,3.69-3.14.58-4.31,0-3.45-3.36,2.67-10.22,5.34-20.44,7.78-30.71.57-2.37,1.25-2.55,3.3-1.68a116,116,0,0,0,12.08,4.49c2.62.76,4,2.24,4.35,4.72C262.43,115.25,263.19,121.29,264,127.08Z" transform="translate(-29.74 -31)"/><path class="cls-2" d="M358,176.56c0-9.39,5.9-15.55,14.92-15.56C383,161,389,166.81,389,176.52A15.46,15.46,0,0,1,373.6,192C364,192,358,186.07,358,176.56Z" transform="translate(-29.74 -31)"/><path class="cls-2" d="M251,282.28c5.63-4.09,10.61-7.62,15.49-11.28,1.43-1.07,2.39-.67,3.42.41,6.33,6.7,14.19,11.33,22,16,2.75,1.67,3.38,3.51,2.07,6.47-1.8,4.08-3.43,8.25-4.86,12.48-.84,2.51-1.85,2.14-3.53.91C274.21,299.07,262.84,290.86,251,282.28Z" transform="translate(-29.74 -31)"/><path class="cls-2" d="M221.13,531.07a1.59,1.59,0,0,1-1.07,2.35c-3.42,1.26-6.86,2.49-10.28,3.75-2.18.8-2.52-.73-2.94-2.25q-5.62-20.37-11.3-40.72c-.4-1.43-.69-2.69.93-3.36,3.82-1.6,7.64-3.23,11.56-4.58,1.68-.58,2.34,1.12,2.65,2.35q5.25,21,10.37,42A4.17,4.17,0,0,1,221.13,531.07Z" transform="translate(-29.74 -31)"/><path class="cls-2" d="M328,541.34c-.19-7.08,1.52-8.64,8.16-7.33,10.86,2.15,21.68,4.53,32.53,6.73,2,.4,3.65.78,3.24,3.34-.9,5.54-2,11-2.65,16.61-.42,3.44-1.79,3.15-4.21,1.89-11.5-6-23.06-11.89-34.59-17.82C329,544,327.46,543.12,328,541.34Z" transform="translate(-29.74 -31)"/><path class="cls-2" d="M112.56,410.7c-.4,1.21-.75,2.32-1.11,3.42-2.61,7.85-5.31,15.68-7.77,23.58-.83,2.66-2,3.34-4.55,2.23-5.14-2.26-10.3-4.52-15.55-6.53-2.2-.84-2.77-1.68-1.9-4,3-7.89,5.73-15.86,8.58-23.8.71-2,1.72-2.89,4.12-2,5.29,1.89,10.71,3.41,16.06,5.13C111.45,409,112.94,409,112.56,410.7Z" transform="translate(-29.74 -31)"/><path class="cls-2" d="M322.8,576.42l36.37,6.78a41.31,41.31,0,0,0,4.37.79c2,.14,2.63,1.14,2.27,3-.12.65-.49,1.25-.58,1.9-.54,3.66.89,8.79-2.49,10.47-2.63,1.31-6.95-.72-10.51-1.33-9.57-1.64-19.13-3.39-28.73-4.94-3.37-.55-5.26-1.52-3.92-5.51a42.8,42.8,0,0,0,1.4-8.27C321.22,577.23,321.87,576.06,322.8,576.42Z" transform="translate(-29.74 -31)"/><path class="cls-2" d="M117.21,521c11.6-4.4,22-8.27,32.28-12.3,2.4-.93,3.64-.28,4.8,1.87,3,5.55,6,11.08,9.27,16.47,1.67,2.78.95,4.13-1.86,5.17s-5.43,2.5-8.24,3.48c-1.47.52-3,1.58-4.75.7C138.61,531.37,128.47,526.45,117.21,521Z" transform="translate(-29.74 -31)"/><path class="cls-2" d="M260.14,97.74c.68,3.34-1.57,3.15-4.65,2q-14.4-5.52-28.84-10.92c-2.68-1-3.75-2.15-2.07-5.11a90.22,90.22,0,0,0,5.19-11.3c1.24-3.14,2.67-4.47,6.28-3,6.11,2.57,12.4,4.7,18.67,6.88,2.33.8,3.24,2,3.39,4.62C258.41,86.18,259.33,91.4,260.14,97.74Z" transform="translate(-29.74 -31)"/><path class="cls-2" d="M383.92,251.46c-2.36,8.37-2.74,17.49-4.66,26.34-.47,2.17-.86,3-3.47,2.41C370,278.85,364.16,278,358.31,277c-2.08-.33-2.39-1.22-1.81-3,2.93-9.3,5.76-18.64,8.69-27.94.65-2.05,2.14-2,4-1.51a117.72,117.72,0,0,0,11.6,2.44C383.41,247.36,384.12,248.77,383.92,251.46Z" transform="translate(-29.74 -31)"/><path class="cls-2" d="M150.26,97.67c-1.88,7-3.62,13.77-5.52,20.47-.5,1.75-2,2-3.65,1.4-4.37-1.6-8.75-3.14-13.13-4.71-1.48-.53-1.69-1.78-2-3.13-2.07-8.2-4.22-16.37-6.39-24.54-.35-1.3-1-2.69.21-3.69,1.06-.87,2.2.09,3.25.53,7.81,3.25,15.67,6.42,23.42,9.81C148.1,94.55,151.1,94.65,150.26,97.67Z" transform="translate(-29.74 -31)"/><path class="cls-2" d="M86.47,185c15.8,1.84,31.74,1.09,47.55,2.85,4,.45,4.18,3.15,4.84,5.77.33,1.29-.42,2.16-1.89,2.35-7.86,1-15.71,2-23.57,3-7.69,1-15.4,1.81-23.09,2.79-3.43.44-6.33.66-6.48-4.23-.07-2.42-1.2-4.8-1.78-7.22C80.75,185,80.77,185,86.47,185Z" transform="translate(-29.74 -31)"/><path class="cls-2" d="M156,538.91l28-11.77c3.82-1.61,7.64-3.2,11.46-4.82,2.15-.91,3.71-.84,4.23,2,.38,2.11,1.08,4.16,1.66,6.23,2.64,9.37,2.64,9.35-6.31,12.36-4.24,1.43-8.65,2.58-12.6,4.6-4.19,2.13-7.67,1.85-11.6-.48-4.28-2.54-8.87-4.55-13.32-6.81A14.22,14.22,0,0,1,156,538.91Z" transform="translate(-29.74 -31)"/><path class="cls-2" d="M116,267.82c-.7-3.45,1.07-3.39,3.89-2.4,11.24,3.95,22.49,7.88,33.82,11.57,3.65,1.19,5.31,3.77,5,7-.31,3.58-3.74,2.79-6.29,3q-13.77,1.34-27.51,2.83c-3.12.34-6.14.62-6.7-3.58C117.47,280.23,116.78,274.18,116,267.82Z" transform="translate(-29.74 -31)"/><path class="cls-2" d="M243.94,666c.93-7.53,1.9-15.05,2.78-22.58.27-2.34,1.25-3.15,3.75-3.49,13-1.77,13-1.89,18.84,9.75,1.48,3,2.93,6,4.49,8.9,1.3,2.46,1.74,4-2,4.76-7.91,1.73-15.74,3.88-23.52,6.15C244.74,670.49,243.62,669.38,243.94,666Z" transform="translate(-29.74 -31)"/><path class="cls-2" d="M384.22,652.11c-1.22,8.5-2.27,16.36-3.51,24.18-.44,2.75-1.71,4.59-5.08,5.11-4.21.66-8.28,2.29-12.39,3.58-2.81.88-3.6-.32-3.21-2.89,1.64-10.6,3.44-21.18,4.82-31.81.46-3.52,2.1-3.46,4.73-3a104.75,104.75,0,0,0,11.25,1.63C383.53,649.13,385.12,649.66,384.22,652.11Z" transform="translate(-29.74 -31)"/><path class="cls-2" d="M405,560.21c0,3.33,0,6.66,0,10,0,2.19-.78,2.84-3.09,2.32-7.25-1.65-14.54-3.13-21.85-4.5-2.31-.43-3.29-1.68-3-3.76.86-6.2,2-12.38,2.82-18.59.36-2.54,1.61-2.85,3.82-2.32,5.46,1.29,10.92,2.75,16.47,3.52,3.86.53,5.2,2.16,4.88,5.85C404.83,555.2,405,557.71,405,560.21Z" transform="translate(-29.74 -31)"/><path class="cls-2" d="M405,475.75c-.45,3.35,1.81,8.57-.86,11.29s-7.27-1.18-11.22-1.22c-3.74,0-7.48-1.16-11.2-1.88-2-.4-4.05-1-3.56-3.77,1.17-6.65,2.55-13.26,3.56-19.94.5-3.3,2.18-3.62,4.86-2.9,4.62,1.25,9.22,2.68,13.92,3.52,3.52.62,4.82,2.21,4.55,5.68C404.82,469.34,405,472.18,405,475.75Z" transform="translate(-29.74 -31)"/><path class="cls-2" d="M109.55,446.3c3.38-10.56,6.86-21.24,10.19-32,.62-2,1.48-2.14,3.23-1.49,4.81,1.8,9.64,3.55,14.53,5.11,2.5.8,1.91,2.1,1.18,3.78q-5.44,12.54-10.76,25.11c-.71,1.68-2,2.51-3.5,2C119.65,447.35,114.47,448.66,109.55,446.3Z" transform="translate(-29.74 -31)"/><path class="cls-2" d="M401.35,93.44a17.83,17.83,0,0,1,3.72,11.38c-.17,16-.29,32,.07,47.92.1,4.25-1.92,6.07-5,7.47-3.33,1.52-3.26-2.48-5-3.41-8.64-4.59-3.89-11.59-3-17.47,2.36-15,5.41-29.89,8.21-44.82C400.42,94.24,400.79,94,401.35,93.44Z" transform="translate(-29.74 -31)"/><path class="cls-2" d="M67,588c-8.78,1-19.15-1.54-29.62-1-3.17.16-3.72-1.1-2.62-3.93s1.23-6.47,3-8.86c2.31-3.14,6-.25,8.86,0,12.51.9,25,2.54,37.45,3.72,2.5.24,4.53.6,3.82,3.6-.64,2.69.39,6.75-4.7,6.54C78.4,587.84,73.57,588,67,588Z" transform="translate(-29.74 -31)"/><path class="cls-2" d="M276,633c-4.25-8.52-7.9-15.77-11.47-23-.53-1.06,7.69-16.9,8.74-16.76,6.53.88,13.05,1.87,19.54,3,1.37.24.75,1.59.31,2.47C287.64,609.7,282.14,620.68,276,633Z" transform="translate(-29.74 -31)"/><path class="cls-2" d="M372.94,330c.51-8.36,3.29-15.35,4.48-22.65.68-4.23,1.85-8.38,2.59-12.61.67-3.78,2.31-5.52,6.43-4.48,4.47,1.13,9,1.87,13.58,2.72,5.39,1,7.15,5.24,3.33,9.06-7.38,7.38-15,14.58-22.79,21.51A65.27,65.27,0,0,1,372.94,330Z" transform="translate(-29.74 -31)"/><path class="cls-2" d="M66.61,159.47c-.16,2.1-2,2.28-3.56,2.47-6.56.78-13.2,1.1-19.67,2.31-3,.54-3.62-.62-4-2.68-1.1-6-2-12-3.07-18.06-.25-1.42.12-2.31,1.6-2.45q10.61-1,21.22-2a2.43,2.43,0,0,1,3,1.95C63.57,147.09,65.08,153.19,66.61,159.47Z" transform="translate(-29.74 -31)"/><path class="cls-2" d="M103.8,373.13c6,1.88,11.65,3.65,17.31,5.49,1.25.4,1.78,1.22,1.27,2.7q-3.7,10.81-7.25,21.69c-.73,2.27-2.16,2.1-3.91,1.58-4.76-1.4-9.55-2.68-14.27-4.19-2.5-.79-4.45-1.79-2.93-5.35,2.66-6.23,4.76-12.71,7.13-19.08C101.66,374.6,102.09,373.06,103.8,373.13Z" transform="translate(-29.74 -31)"/><path class="cls-2" d="M60.81,432.72l14.27,5.84c7.07,2.89,14.1,5.86,21.23,8.61,2.73,1.05,3.41,2.37,2.52,5.23-3.16,10.12-3.12,10.29-12.75,6.07-9-3.93-17.73-8.4-26.77-12.21-3.69-1.56-4.09-3.66-3-6.89.6-1.73,1.16-3.47,1.63-5.23C58.24,433.11,58.38,432.13,60.81,432.72Z" transform="translate(-29.74 -31)"/><path class="cls-2" d="M325.67,323.86c-5.16-1.77-9.72-3.29-14.25-4.89s-8.66-3.4-13.12-4.66c-2.69-.77-3.07-2-2.18-4.28,1.74-4.48,3.47-9,5.15-13.47.86-2.33,1.81-2.36,4-1.09,7.62,4.37,15.43,8.41,23.22,12.49,1.25.66,2.58,1.05,2.05,2.79-1.18,4-2.46,7.89-3.67,11.84C326.58,323.56,325.94,323.87,325.67,323.86Z" transform="translate(-29.74 -31)"/><path class="cls-2" d="M165.39,158c5.27,8.38,10.17,16.16,15.06,23.95.52.84,1,1.72,1.53,2.55,3.54,5.44,3.28,5.9-3.46,6.53-7.54.71-15.11,1.25-22.55,2.84-2.46.52-4,.17-2.82-2.94C157.16,180.21,161.11,169.5,165.39,158Z" transform="translate(-29.74 -31)"/><path class="cls-2" d="M182.52,388.14q-14.51-4.22-29-8.45c-2-.58-2.28-1.53-.66-3.06q10.68-10.06,21.24-20.21c2-1.91,2.71-.89,3.25,1.17,2.47,9.42,5,18.83,7.46,28.25C185.28,387.72,184.89,388.94,182.52,388.14Z" transform="translate(-29.74 -31)"/><path class="cls-2" d="M175.46,106.57c-2.67,7.44-5.09,14.32-7.61,21.16-.64,1.76-2,.67-2.94.34-4.86-1.66-9.68-3.43-14.53-5.1-2.28-.78-2.47-2.15-1.81-4.28,1.92-6.16,3.73-12.36,5.39-18.59.64-2.41,2.06-2.35,3.74-1.67,5.38,2.16,10.72,4.43,16.08,6.63C174.77,105.46,175.62,105.87,175.46,106.57Z" transform="translate(-29.74 -31)"/><path class="cls-2" d="M70.17,185.82c1.69-.41,2.91,1.09,3.45,3.52.15.64.26,1.3.41,1.94C77.12,204,77.12,203.91,64.38,205c-4.93.42-9.86,1-14.76,1.69-2.43.34-3.34-.65-3.61-2.87a94.42,94.42,0,0,0-1.59-10.77c-.64-2.64.77-3.71,2.6-3.82C54.48,188.8,61.72,187,70.17,185.82Z" transform="translate(-29.74 -31)"/><path class="cls-2" d="M286.12,313.45c-.49,1.12-.85,1.86-1.15,2.62-3.32,8.46-6.78,16.87-9.88,25.41-1.19,3.27-2.44,3.42-4.82,1.3-3.32-3-6.6-6-10.19-8.63-2-1.47-1.54-2.63-.52-4.07,5.06-7.15,10.26-14.19,15.18-21.42,1.78-2.63,3.27-2.16,5-.35C281.68,310.26,284.64,311,286.12,313.45Z" transform="translate(-29.74 -31)"/><path class="cls-2" d="M324.73,672.55c-1.71.4-1.72-1.09-2-2.1-.91-3.17-1.73-6.37-2.56-9.56-.6-2.3,1.06-2.85,2.71-3.33,10.32-3,20.66-6,31-9,2.67-.79,2.73-.06,2.75,2.58.07,9.25-3.73,14.36-13.24,15.82-6.15.95-12.05,3.55-18.06,5.41Z" transform="translate(-29.74 -31)"/><path class="cls-2" d="M269,384.15c4.77,1.61,9.8,3.27,14.79,5,1.39.49.69,1.58.43,2.51-1.71,6.2-3.51,12.39-5.07,18.63-.5,2-1,2.81-3.29,2.2-5.25-1.39-10.6-2.44-15.89-3.67-2-.46-2.63-1.37-1.71-3.55,2.59-6.08,4.89-12.29,7.35-18.42C266.16,385.48,266.85,384.09,269,384.15Z" transform="translate(-29.74 -31)"/><path class="cls-2" d="M93.79,361.69c-3.68-1-7.37-1.88-11-2.94-2-.56-3-1.53-2.23-4,2.31-7.42,4.42-14.91,6.39-22.44.61-2.32,1.8-2.46,3.63-1.94.32.09.61.27.93.36,11.68,3.36,11.65,3.35,8.72,15.14-1.11,4.49-2.2,9-3.07,13.53C96.73,361.5,95.83,362.29,93.79,361.69Z" transform="translate(-29.74 -31)"/><path class="cls-2" d="M71.36,179.55c.3,1.92-.94,2.24-2.37,2.44-7.85,1.1-15.7,2.12-23.51,3.4-1.9.31-2.27-.22-2.51-1.87-.54-3.59-1.33-7.14-1.93-10.72-.48-2.87.92-4.38,3.72-4.75,6.87-.9,13.74-1.73,20.59-2.75,1.68-.25,2.7.29,3.07,1.71C69.49,171.17,70.39,175.37,71.36,179.55Z" transform="translate(-29.74 -31)"/><path class="cls-2" d="M329.82,605.93a12.81,12.81,0,0,0-.4,1.3c-2.5,10.67-.34,8.52-11.07,7-7.85-1.08-15.7-2.24-23.57-3.21-2.4-.3-3-.85-1.47-3,2.46-3.31,2.62-9,6.37-10.27,3.51-1.18,8.06.59,12.12,1.27,5.22.87,10.38,2.09,15.61,2.88C329.69,602.28,330.16,603.39,329.82,605.93Z" transform="translate(-29.74 -31)"/><path class="cls-2" d="M241.91,277a4.3,4.3,0,0,1-2.19,3.61c-4.31,3.06-8.7,6-12.93,9.18-1.83,1.37-2.46.9-3-1.06-1.8-6.19-3.7-12.34-5.56-18.51-.6-2,.48-3.06,2.15-3.88,4-2,8-4,12-6,1-.47,2.4-1.55,3-.05C237.77,265.9,239.87,271.64,241.91,277Z" transform="translate(-29.74 -31)"/><path class="cls-2" d="M223,228c3.38,8.53,6.46,16.35,9.58,24.16.83,2.08.3,3.46-1.74,4.44-4,1.95-8.09,3.88-12,6.05-2.26,1.25-2.79.11-3.33-1.7-1.38-4.6-2.9-9.15-4.24-13.76a5,5,0,0,1,.8-4.71C215.57,237.93,219,233.28,223,228Z" transform="translate(-29.74 -31)"/><path class="cls-2" d="M267.29,139c3.66-.66,4.1,2.1,4.58,4.51.71,3.55.92,7.21,1.78,10.71.8,3.21-.71,4.52-3.36,4.69a122.6,122.6,0,0,0-15.17,2.05c-2.47.48-4.09-.23-4.39-3.17-.4-4.08-1.15-8.13-1.72-12.2-.3-2.12.47-3.55,2.71-3.93Z" transform="translate(-29.74 -31)"/><path class="cls-2" d="M107.81,299c2.4-.16,3.36.51,2.59,3.49-2,7.85-3.69,15.79-5.39,23.72-.66,3.08-1.84,4-5.19,3-10.82-3.46-10.86-3.31-8-14.12.47-1.76.84-3.55,1.37-5.3C96.39,299.47,96.84,299.15,107.81,299Z" transform="translate(-29.74 -31)"/><path class="cls-2" d="M222.68,643.79c-1.78,4.88-3.8,10.5-5.9,16.08-.45,1.21-1.5,1-2.52.74-5.63-1.34-11.25-2.7-16.9-4-3.28-.72-3-2.11-1.22-4.33,3.77-4.82,7.37-9.77,11-14.67.69-.93,1.38-2.37,2.58-2a41.7,41.7,0,0,1,12.32,5.16C222.79,641.27,223,642.14,222.68,643.79Z" transform="translate(-29.74 -31)"/><path class="cls-2" d="M222.05,398.67c-7-1.7-13.22-3.25-19.47-4.71-2.4-.56-3-2.46-3.47-4.4-2.54-10.7-2.51-10.7,7.28-16.27,7-4,7.1-4,9.5,3.89C218,384,219.83,390.87,222.05,398.67Z" transform="translate(-29.74 -31)"/><path class="cls-2" d="M110.55,450.9c3.83,1.18,7.86.87,11.79,1.42,2.33.32,3.55,1.19,2.86,4.31-1.43,6.42-2.21,13-3,19.56-.38,2.95-1.72,2.82-3.59,1.55-4.53-3.06-9-6.18-13.5-9.31a4.1,4.1,0,0,1-1.68-5.22c1.13-3.12,2.23-6.26,3.16-9.45C107.18,451.67,108.28,450.62,110.55,450.9Z" transform="translate(-29.74 -31)"/><path class="cls-2" d="M404.9,658c.56,4.18-.9,7.67-1.22,11.3a5.62,5.62,0,0,1-4.92,5.4,70.78,70.78,0,0,0-9.54,2.78c-3.09,1.1-4.62.21-4.18-3.05q1.44-10.8,3.23-21.55c.24-1.41,1-3.24,3-2.52,2.61,1,5.28.46,7.9.85C403.36,651.81,406.53,653.2,404.9,658Z" transform="translate(-29.74 -31)"/><path class="cls-2" d="M269.1,227.1a3.15,3.15,0,0,1,2.94,2c2.86,5.41,5.77,10.8,8.62,16.22.51,1,1.42,2.1.26,3.16-3.28,3-6.56,6-10,8.86-1.41,1.16-2.58-.24-3.22-1.32-4.16-7-7-14.62-10.17-22.06-.37-.85-.36-1.83.46-2.19C261.75,230.1,265.58,228.57,269.1,227.1Z" transform="translate(-29.74 -31)"/><path class="cls-2" d="M178.36,676.85c-5.21-2-10-3.77-14.8-5.6-.93-.35-1.81-.82-2.74-1.16-7.81-2.83-7.61-2.76-4.88-10.74,1.21-3.57,3-4.05,6.26-3.19,6.53,1.75,13.12,3.3,19.71,4.83,1.83.42,3.35.87,2.48,3.19-1.45,3.87-3,7.7-4.51,11.55A1.5,1.5,0,0,1,178.36,676.85Z" transform="translate(-29.74 -31)"/><path class="cls-2" d="M197.58,46.09c-1.06,2.74-2.34,6.34-3.86,9.83-.68,1.59-2.22,1.1-3.48.66C184,54.4,177.75,52.15,171.48,50c-2-.7-2.65-1.81-1.68-3.74a3.76,3.76,0,0,0,.13-.48c3.48-12.06,3.51-12.1,15-7.66,3.7,1.43,7.28,3.2,11,4.69C197.12,43.31,198.11,43.7,197.58,46.09Z" transform="translate(-29.74 -31)"/><path class="cls-2" d="M251.94,169.24c-1.11-3.65,1.89-4.54,5-5,5.22-.79,10.48-1.29,15.72-2,1.46-.19,2.16.33,2.35,1.79.31,2.29.74,4.57,1.06,6.86,1.07,7.87,1.07,7.91-6.6,9-4.57.65-9.18,1.07-13.75,1.76-1.72.25-2.5-.18-2.66-1.91C252.72,176.46,252.35,173.18,251.94,169.24Z" transform="translate(-29.74 -31)"/><path class="cls-2" d="M250.2,615.6c1.63-1.06,2.83.16,3.78,2.32q2.93,6.6,6.06,13.1c1.25,2.58.42,3.81-2.27,4-6.94.37-13.75,1.67-20.58,2.81-2.41.41-3.64-.22-2.63-2.92,1.85-5,3.57-10,5.51-14.93C241.79,615.54,246,616.65,250.2,615.6Z" transform="translate(-29.74 -31)"/><path class="cls-2" d="M338.77,604c6.38,1,13.24,2,20.07,3.13,2.64.45,4,1.34,3.36,4.94-1.47,8.43-1.08,8.39-9.39,7.08-5.7-.9-11.44-1.58-17.19-2.14-2.78-.28-3.94-1.46-3.41-4.2.34-1.78.7-3.56,1.11-5.33C334.25,603.56,334.26,603.56,338.77,604Z" transform="translate(-29.74 -31)"/><path class="cls-2" d="M204.79,605c4.29-.83,9.09,1.16,14.1,1.14,3.93,0,4.91,2.81,2.55,6.07q-4.94,6.84-9.94,13.63c-1.69,2.28-3.13,2.64-4.76-.29-3.06-5.5-6.34-10.88-9.61-16.26-1.84-3-2-4.86,2.43-4.32A48.91,48.91,0,0,0,204.79,605Z" transform="translate(-29.74 -31)"/><path class="cls-2" d="M107,57.86c0,3.62-6.32,11.33-9.85,12.37-1.36.4-1.72-.51-2.21-1.36C92.38,64.42,89.8,60,87.26,55.52c-1-1.67-1.67-3.21.72-4.54,4.63-2.59,9.14-5.37,13.68-8.1,1.52-.92,2.89-1.33,3.27,1C105.69,48.61,106.34,53.34,107,57.86Z" transform="translate(-29.74 -31)"/><path class="cls-2" d="M294.5,417.31l-10.21-2.4c-1.76-.41-1.82-1.49-1.39-3,1.75-6.2,3.48-12.4,5-18.65.49-2,1.34-2.48,3.12-1.73.3.13.62.25.93.35,11.69,3.4,11.7,3.4,7.95,14.87-.92,2.83-2,5.62-2.83,8.48C296.59,416.93,295.9,418,294.5,417.31Z" transform="translate(-29.74 -31)"/><path class="cls-2" d="M318.85,671.94c0,2.22-1.3,2.75-2.83,3.2-4.44,1.32-8.92,2.55-13.26,4.15-2.6,1-4,.37-5.15-2-6.48-13.23-6.79-10.35,5.29-14.09a16.82,16.82,0,0,1,3.82-1.08c2.94-.18,6.13-3.57,8.38-1.42C318.09,663.49,317.32,668.43,318.85,671.94Z" transform="translate(-29.74 -31)"/><path class="cls-2" d="M155.22,569.87c-5.15-1.16-10.29-2.37-15.46-3.46-2.57-.54-2.74-1.73-1.6-3.84,1.9-3.5,3.7-7.07,5.37-10.7.95-2.07,2-2.75,4.18-1.57q6.82,3.63,13.83,6.92c2.34,1.1,2.89,2.48,1.5,4.69-1.23,2-2.32,4-3.6,6A3.89,3.89,0,0,1,155.22,569.87Z" transform="translate(-29.74 -31)"/><path class="cls-2" d="M256.69,72.52c-7-2.51-13.77-5-20.58-7.34-1.51-.53-2.38-1.3-2-2.87.94-3.68,2-7.33,3-11a1.48,1.48,0,0,1,1.91-1.09c.64.13,1.25.44,1.88.63C258.64,56.18,253.9,51.79,256.69,72.52Z" transform="translate(-29.74 -31)"/><path class="cls-2" d="M285.63,244.4c-1.25-.1-1.47-1.18-1.92-2-2.58-4.83-5.17-9.65-7.73-14.49-.46-.85-1-1.71-.37-2.77,1.91-3.17,12.28-4.51,15-2,2.57,2.34,5.25,4.56,7.83,6.88,1,.93,2,2.05.48,3.33-4.13,3.56-8.3,7.08-12.47,10.6A4.7,4.7,0,0,1,285.63,244.4Z" transform="translate(-29.74 -31)"/><path class="cls-2" d="M405,277.32a37.74,37.74,0,0,0,0,4c.35,3.32-1.48,4.12-4.23,3.63-5-.9-10-2.12-15.05-2.84-2.59-.37-2.91-1.67-2.63-3.72.05-.33.17-.64.24-1,2.31-11.36,2.31-11.36,13.7-9.21.32.06.62.23.94.3C405,270,405,270,405,277.32Z" transform="translate(-29.74 -31)"/><path class="cls-2" d="M228.53,612.65c3,.11,4.67,2.41,3.49,5.7-1.91,5.27-4.07,10.45-5.86,15.76-.86,2.58-1.94,2.88-4.35,1.86-10.13-4.31-10.15-4.23-3.25-13,2.13-2.72,4.11-5.56,6.3-8.22C225.64,613.76,226.38,612.46,228.53,612.65Z" transform="translate(-29.74 -31)"/><path class="cls-2" d="M405,258.14c0,7.28,0,7.24-7.15,6a74.64,74.64,0,0,0-8.79-1.12c-2.81-.14-3.47-1.36-2.65-3.82a8.77,8.77,0,0,0,.33-.94c.7-3.08-.87-8,2.65-8.79,4.46-1.06,9.44.5,13.86,2.28C406.35,253,404.47,256.17,405,258.14Z" transform="translate(-29.74 -31)"/><path class="cls-2" d="M204.54,592c-10.43,0-10.43,0-8-10.07,1.58-6.58,1.57-6.57,7.77-3.8a30.42,30.42,0,0,0,5.06,2c5.39,1.34,4.74,5.48,4.62,9.45-.07,2-1.3,2.44-3,2.43C208.84,592,206.69,592,204.54,592Z" transform="translate(-29.74 -31)"/><path class="cls-2" d="M210.62,324.59c-3-1.59-4.54-4.54-6.06-7.13-1.05-1.8,1.48-3,2.84-4.07,2.89-2.19,6.23-3.86,8.82-6.34,2.74-2.62,4.57-1.5,6.74.41,6,5.24,6,5.23-.66,9.7-3,2-6,4.06-9.07,6C212.41,323.74,211.49,324.13,210.62,324.59Z" transform="translate(-29.74 -31)"/><path class="cls-2" d="M187.47,340.63c-1.7-2.92-1.91-5.91-2.67-8.75-.47-1.69.35-2.28,1.56-3.11,3.8-2.61,7.55-5.32,11.21-8.13,1.93-1.48,3.29-1.95,4.66.67.75,1.42,2.21,2.45,3.19,3.77s1.64,2.69-.52,4C199.05,332.79,193.36,336.72,187.47,340.63Z" transform="translate(-29.74 -31)"/><path class="cls-2" d="M364.48,205.11c-1.34,3.95-2.43,7.08-3.45,10.24-.72,2.2-2,1.14-3.13.57-4.72-2.47-9.38-5-14.08-7.52-2-1.06-1.65-1.92-.12-3.28,9.22-8.19,9.18-8.21,19.36-1.58C364,204.16,364.68,204.69,364.48,205.11Z" transform="translate(-29.74 -31)"/><path class="cls-2" d="M364.58,366.38c1.72-8.08,3.08-14.65,4.54-21.2.4-1.77,1.55-2.16,2.8-.71q4.18,4.88,8.2,9.89a2,2,0,0,1-.64,3.35Z" transform="translate(-29.74 -31)"/><path class="cls-2" d="M405,352c0,6.83,0,12.73,0,18.64,0,1.41-.37,2.66-1.9,3.11s-2.5-.59-3.33-1.62c-2.49-3.06-4.83-6.24-7.4-9.23-1.47-1.72-1.29-2.8.62-3.89C396.68,356.9,400.34,354.72,405,352Z" transform="translate(-29.74 -31)"/><path class="cls-2" d="M403.79,178.16c-1.05-4.06-2.39-8.09-3-12.22-.35-2.19,2.29-2.24,4-3.57v15.71Z" transform="translate(-29.74 -31)"/></g></svg>