<svg id="Layer_1" data-name="Layer 1" xmlns="http://www.w3.org/2000/svg" viewBox="0 0 102.23 268.15"><defs><style>.cls-1{fill:#fff;}</style></defs><title>Skangens_kunstmueer_logo</title><path class="cls-1" d="M62.81,187.5c-11.82,0-23.65-.14-35.47.07-4.05.07-5.69-1.09-5.57-5.36q.38-13.49,0-27c-.12-4.26,1.55-5.48,5.56-5.44,14.49.15,29,.08,43.47.05,7.09,0,11.44-3.79,11.84-10.09C83,134,79,129.43,72.46,128.34c-11.64-1.93-23.31-3.68-34.92-5.79-9.7-1.77-15.62-9.1-15.68-19.06-.08-14.15-.11-28.31,0-42.47C22,42.69,33.38,31.5,51.61,31.5c21.48,0,43,.07,64.46-.08,3.79,0,5.52,1,5.46,5q-.19,13.74,0,27.48c0,3.69-1.48,4.84-5.11,4.8-14.66-.17-29.32-.14-44,0-8.8,0-14.3,6.38-12.41,14.11,1.15,4.71,4,7.26,9.07,7.81C82,92,94.88,93.5,107.72,95.34c9.61,1.38,15.77,8.36,15.91,18.14.24,15.82.34,31.66,0,47.47s-12,26.53-27.83,26.54Q79.3,187.52,62.81,187.5Z" transform="translate(-21.62 -31.42)"/><path class="cls-1" d="M71.83,299.5c-15,0-30-.11-45,.07-3.87.05-5.34-1.08-5.23-5.09q.35-13.73,0-27.48c-.11-4.06,1.6-5.2,5.32-5.19q45.46.1,90.94,0c4,0,5.73,1.45,5.65,5.58-.17,9-.14,18,0,27,.06,3.8-1.24,5.27-5.24,5.21C102.81,299.38,87.32,299.5,71.83,299.5Z" transform="translate(-21.62 -31.42)"/><path class="cls-1" d="M72.51,243.64c-15.32,0-30.64-.1-46,.07-3.67,0-5-1.08-4.92-4.83.21-9.32.19-18.65,0-28-.06-3.51,1.2-4.62,4.65-4.61q46.2.15,92.41,0c3.45,0,4.84,1.2,4.81,4.6-.08,9.32-.1,18.65,0,28,0,3.65-1.38,4.88-5.06,4.84C103.14,243.54,87.82,243.64,72.51,243.64Z" transform="translate(-21.62 -31.42)"/></svg>