<svg version="1.1" viewBox="0 0 1920 1080" xmlns="http://www.w3.org/2000/svg">
    <g transform="translate(0 -11.25)">
        <g transform="translate(-17.475 -515.61)">
            <path class="cls-1" d="m963.47 1100.9c-19.753 0-39.524-.2339-59.277.117-6.7683.117-9.509-1.8216-9.3085-8.9575q.63506-22.544 0-45.122c-.20054-7.1192 2.5903-9.1581 9.2918-9.0912 24.216.2507 48.464.1337 72.646.084 11.849 0 19.118-6.3338 19.787-16.862.60163-9.5759-6.0831-17.213-17.013-19.035-19.453-3.2254-38.955-6.15-58.358-9.6762-16.211-2.958-26.104-15.208-26.204-31.853-.13369-23.647-.18383-47.311 0-70.975.23397-30.633 19.252-49.333 49.718-49.333 35.897 0 71.861.11699 107.72-.13369 6.3338 0 9.2249 1.6712 9.1246 8.3559q-.3175 22.962 0 45.924c0 6.1667-2.4733 8.0885-8.5397 8.0217-24.5-.2841-48.999-.23397-73.532 0-14.706 0-23.898 10.662-20.739 23.58 1.9219 7.8713 6.6848 12.133 15.158 13.052 21.592 2.3062 43.117 4.813 64.575 7.888 16.06 2.3062 26.355 13.971 26.588 30.315.4011 26.438.5682 52.91 0 79.331-.5682 26.421-20.054 44.337-46.509 44.353q-27.575.05-55.132.017z" style="fill:#7b6c48;stroke-width:1.6712"/>
            <path class="cls-1" d="m978.55 1288c-25.068 0-50.136-.1838-75.203.117-6.4675.084-8.9241-1.8049-8.7403-8.5063q.58492-22.945 0-45.924c-.18383-6.785 2.6739-8.6902 8.8907-8.6735q75.972.1671 151.98 0c6.6847 0 9.5759 2.4232 9.4422 9.3252-.2841 15.041-.234 30.081 0 45.122.1003 6.3505-2.0723 8.8071-8.757 8.7069-25.837-.3677-51.723-.1672-77.61-.1672z" style="fill:#7b6c48;stroke-width:1.6712"/>
            <path class="cls-1" d="m979.69 1194.7c-25.603 0-51.205-.1672-76.875.1169-6.1333 0-8.3559-1.8048-8.2222-8.0718.35095-15.575.31753-31.168 0-46.793-.10027-5.8659 2.0054-7.7209 7.771-7.7042q77.209.2507 154.43 0c5.7656 0 8.0886 2.0054 8.0384 7.6875-.1337 15.575-.1671 31.168 0 46.793 0 6.0998-2.3062 8.1554-8.4562 8.0885-25.502-.2841-51.105-.1169-76.691-.1169z" style="fill:#7b6c48;stroke-width:1.6712"/>
        </g>
    </g>
</svg>
